<mxfile host="Electron" agent="Mozilla/5.0 (Windows NT 10.0; Win64; x64) AppleWebKit/537.36 (KHTML, like Gecko) draw.io/28.0.6 Chrome/138.0.7204.100 Electron/37.2.3 Safari/537.36" version="28.0.6">
  <diagram name="Page-1" id="RcfCfAgbn_g_bLAdrxf0">
    <mxGraphModel dx="1005" dy="516" grid="1" gridSize="10" guides="1" tooltips="1" connect="1" arrows="1" fold="1" page="1" pageScale="1" pageWidth="827" pageHeight="1169" math="0" shadow="0">
      <root>
        <mxCell id="0" />
        <mxCell id="1" parent="0" />
        <mxCell id="5NriRDD_kzUD7KnS0G-X-5" value="" style="rounded=0;whiteSpace=wrap;html=1;dashed=1;" vertex="1" parent="1">
          <mxGeometry x="215" y="120" width="650" height="560" as="geometry" />
        </mxCell>
        <mxCell id="5NriRDD_kzUD7KnS0G-X-4" value="" style="rounded=0;whiteSpace=wrap;html=1;dashed=1;fillColor=none;shadow=0;glass=0;" vertex="1" parent="1">
          <mxGeometry x="15" y="120" width="150" height="560" as="geometry" />
        </mxCell>
        <mxCell id="5NriRDD_kzUD7KnS0G-X-1" value="&lt;h1 style=&quot;margin-top: 0px;&quot;&gt;&lt;span style=&quot;font-family: &amp;quot;Comic Sans MS&amp;quot;; background-color: transparent; color: light-dark(rgb(0, 0, 0), rgb(255, 255, 255)); font-weight: normal;&quot;&gt;&lt;font style=&quot;font-size: 44px;&quot;&gt;Data Architecture&lt;/font&gt;&lt;/span&gt;&lt;/h1&gt;" style="text;html=1;whiteSpace=wrap;overflow=hidden;rounded=1;fillColor=none;strokeColor=default;align=center;" vertex="1" parent="1">
          <mxGeometry width="1110" height="70" as="geometry" />
        </mxCell>
        <mxCell id="5NriRDD_kzUD7KnS0G-X-8" value="&lt;b&gt;&lt;font style=&quot;font-size: 16px;&quot;&gt;Sources&lt;/font&gt;&lt;/b&gt;" style="text;html=1;align=center;verticalAlign=middle;whiteSpace=wrap;rounded=0;fillColor=default;fillStyle=auto;" vertex="1" parent="1">
          <mxGeometry x="47.5" y="100" width="85" height="40" as="geometry" />
        </mxCell>
        <mxCell id="5NriRDD_kzUD7KnS0G-X-9" value="&lt;b&gt;&lt;font style=&quot;font-size: 16px;&quot;&gt;DataWarehouse&lt;/font&gt;&lt;/b&gt;" style="text;html=1;align=center;verticalAlign=middle;whiteSpace=wrap;rounded=0;fillColor=default;fillStyle=auto;" vertex="1" parent="1">
          <mxGeometry x="473.75" y="100" width="132.5" height="40" as="geometry" />
        </mxCell>
        <mxCell id="5NriRDD_kzUD7KnS0G-X-18" value="" style="group" vertex="1" connectable="0" parent="1">
          <mxGeometry x="50" y="230" width="69" height="80" as="geometry" />
        </mxCell>
        <mxCell id="5NriRDD_kzUD7KnS0G-X-12" value="" style="image;aspect=fixed;html=1;points=[];align=center;fontSize=12;image=img/lib/azure2/general/Folder_Blank.svg;" vertex="1" parent="5NriRDD_kzUD7KnS0G-X-18">
          <mxGeometry width="69" height="56.00000000000001" as="geometry" />
        </mxCell>
        <mxCell id="5NriRDD_kzUD7KnS0G-X-13" value="" style="sketch=0;html=1;aspect=fixed;strokeColor=none;shadow=0;fillColor=#3B8DF1;verticalAlign=top;labelPosition=center;verticalLabelPosition=bottom;shape=mxgraph.gcp2.files" vertex="1" parent="5NriRDD_kzUD7KnS0G-X-18">
          <mxGeometry x="29" y="17.19999999999999" width="40" height="38.8" as="geometry" />
        </mxCell>
        <mxCell id="5NriRDD_kzUD7KnS0G-X-16" value="&lt;b&gt;&lt;font style=&quot;font-size: 14px;&quot;&gt;CRM&lt;/font&gt;&lt;/b&gt;" style="text;html=1;align=center;verticalAlign=middle;whiteSpace=wrap;rounded=0;" vertex="1" parent="5NriRDD_kzUD7KnS0G-X-18">
          <mxGeometry y="50" width="60" height="30" as="geometry" />
        </mxCell>
        <mxCell id="5NriRDD_kzUD7KnS0G-X-19" value="" style="group" vertex="1" connectable="0" parent="1">
          <mxGeometry x="47.5" y="350" width="69" height="80" as="geometry" />
        </mxCell>
        <mxCell id="5NriRDD_kzUD7KnS0G-X-11" value="" style="image;aspect=fixed;html=1;points=[];align=center;fontSize=12;image=img/lib/azure2/general/Folder_Blank.svg;" vertex="1" parent="5NriRDD_kzUD7KnS0G-X-19">
          <mxGeometry width="69" height="56.00000000000001" as="geometry" />
        </mxCell>
        <mxCell id="5NriRDD_kzUD7KnS0G-X-15" value="" style="sketch=0;html=1;aspect=fixed;strokeColor=none;shadow=0;fillColor=#3B8DF1;verticalAlign=top;labelPosition=center;verticalLabelPosition=bottom;shape=mxgraph.gcp2.files" vertex="1" parent="5NriRDD_kzUD7KnS0G-X-19">
          <mxGeometry x="27.5" y="15.75" width="41.5" height="40.25" as="geometry" />
        </mxCell>
        <mxCell id="5NriRDD_kzUD7KnS0G-X-17" value="&lt;b&gt;&lt;font style=&quot;font-size: 14px;&quot;&gt;ERP&lt;/font&gt;&lt;/b&gt;" style="text;html=1;align=center;verticalAlign=middle;whiteSpace=wrap;rounded=0;" vertex="1" parent="5NriRDD_kzUD7KnS0G-X-19">
          <mxGeometry y="50" width="60" height="30" as="geometry" />
        </mxCell>
        <mxCell id="5NriRDD_kzUD7KnS0G-X-21" value="" style="endArrow=none;html=1;rounded=0;" edge="1" parent="1">
          <mxGeometry width="50" height="50" relative="1" as="geometry">
            <mxPoint x="19.5" y="480" as="sourcePoint" />
            <mxPoint x="149.5" y="480" as="targetPoint" />
          </mxGeometry>
        </mxCell>
        <mxCell id="5NriRDD_kzUD7KnS0G-X-22" value="&lt;b&gt;Files Type: &lt;/b&gt;CSV files" style="text;html=1;align=center;verticalAlign=middle;whiteSpace=wrap;rounded=0;" vertex="1" parent="1">
          <mxGeometry x="12" y="500" width="140" height="30" as="geometry" />
        </mxCell>
        <mxCell id="5NriRDD_kzUD7KnS0G-X-23" value="&lt;b&gt;Interface: &lt;/b&gt;files in folder" style="text;html=1;align=center;verticalAlign=middle;whiteSpace=wrap;rounded=0;" vertex="1" parent="1">
          <mxGeometry x="14.5" y="540" width="140" height="30" as="geometry" />
        </mxCell>
        <mxCell id="5NriRDD_kzUD7KnS0G-X-29" value="" style="group" vertex="1" connectable="0" parent="1">
          <mxGeometry x="245" y="140" width="160" height="530" as="geometry" />
        </mxCell>
        <mxCell id="5NriRDD_kzUD7KnS0G-X-26" value="&lt;b&gt;Bronze Layer&lt;/b&gt;" style="rounded=0;whiteSpace=wrap;html=1;fillColor=#ffe6cc;strokeColor=#d79b00;" vertex="1" parent="5NriRDD_kzUD7KnS0G-X-29">
          <mxGeometry width="160" height="40.585861678004534" as="geometry" />
        </mxCell>
        <mxCell id="5NriRDD_kzUD7KnS0G-X-27" value="" style="rounded=0;whiteSpace=wrap;html=1;fillColor=none;strokeColor=#d79b00;" vertex="1" parent="5NriRDD_kzUD7KnS0G-X-29">
          <mxGeometry y="54.10907407407408" width="160" height="475.89092592592596" as="geometry" />
        </mxCell>
        <mxCell id="5NriRDD_kzUD7KnS0G-X-25" value="" style="html=1;verticalLabelPosition=bottom;align=center;labelBackgroundColor=#ffffff;verticalAlign=top;strokeWidth=2;strokeColor=#d79b00;shadow=0;dashed=0;shape=mxgraph.ios7.icons.data;fillColor=#ffe6cc;rotation=0;" vertex="1" parent="5NriRDD_kzUD7KnS0G-X-29">
          <mxGeometry x="56.23" y="120" width="50" height="70" as="geometry" />
        </mxCell>
        <mxCell id="5NriRDD_kzUD7KnS0G-X-39" value="&lt;font style=&quot;font-size: 13px;&quot;&gt;Raw Data&lt;/font&gt;" style="text;html=1;align=center;verticalAlign=middle;whiteSpace=wrap;rounded=0;" vertex="1" parent="5NriRDD_kzUD7KnS0G-X-29">
          <mxGeometry x="35.649867374005304" y="189.39939939939944" width="71.29973474801061" height="40.58558558558559" as="geometry" />
        </mxCell>
        <mxCell id="5NriRDD_kzUD7KnS0G-X-45" value="&lt;div style=&quot;text-align: left;&quot;&gt;&lt;font style=&quot;font-size: 11px;&quot;&gt;&lt;b style=&quot;background-color: transparent; color: light-dark(rgb(0, 0, 0), rgb(255, 255, 255));&quot;&gt;Files Type: &lt;/b&gt;&lt;span style=&quot;background-color: transparent; color: light-dark(rgb(0, 0, 0), rgb(255, 255, 255));&quot;&gt;T&lt;/span&gt;&lt;span style=&quot;background-color: transparent; color: light-dark(rgb(0, 0, 0), rgb(255, 255, 255));&quot;&gt;ables&lt;/span&gt;&lt;/font&gt;&lt;/div&gt;&lt;div style=&quot;text-align: left;&quot;&gt;&lt;span style=&quot;background-color: transparent; color: light-dark(rgb(0, 0, 0), rgb(255, 255, 255));&quot;&gt;&lt;font style=&quot;font-size: 11px;&quot;&gt;&lt;br&gt;&lt;/font&gt;&lt;/span&gt;&lt;/div&gt;&lt;div style=&quot;text-align: left;&quot;&gt;&lt;span style=&quot;background-color: transparent; color: light-dark(rgb(0, 0, 0), rgb(255, 255, 255));&quot;&gt;&lt;b&gt;&lt;font style=&quot;font-size: 11px;&quot;&gt;Load:&lt;/font&gt;&lt;/b&gt;&lt;/span&gt;&lt;/div&gt;&lt;span style=&quot;background-color: transparent; color: light-dark(rgb(0, 0, 0), rgb(255, 255, 255));&quot;&gt;&lt;div style=&quot;text-align: left;&quot;&gt;&lt;ul&gt;&lt;font style=&quot;font-size: 11px;&quot;&gt;&lt;li&gt;&lt;span style=&quot;background-color: transparent; color: light-dark(rgb(0, 0, 0), rgb(255, 255, 255));&quot;&gt;Batch Processing&lt;/span&gt;&lt;/li&gt;&lt;li&gt;&lt;span style=&quot;background-color: transparent; color: light-dark(rgb(0, 0, 0), rgb(255, 255, 255));&quot;&gt;Full Load&lt;/span&gt;&lt;/li&gt;&lt;li&gt;&lt;span style=&quot;background-color: transparent; color: light-dark(rgb(0, 0, 0), rgb(255, 255, 255));&quot;&gt;Truncat &amp;amp; Insert&lt;/span&gt;&lt;/li&gt;&lt;/font&gt;&lt;/ul&gt;&lt;/div&gt;&lt;/span&gt;&lt;div style=&quot;&quot;&gt;&lt;div style=&quot;text-align: left;&quot;&gt;&lt;font style=&quot;font-size: 11px;&quot;&gt;&lt;b&gt;Transformation:&lt;/b&gt; None&lt;/font&gt;&lt;/div&gt;&lt;div style=&quot;text-align: left;&quot;&gt;&lt;b&gt;&lt;font style=&quot;font-size: 11px;&quot;&gt;&lt;br&gt;&lt;/font&gt;&lt;/b&gt;&lt;/div&gt;&lt;div style=&quot;text-align: left;&quot;&gt;&lt;font style=&quot;font-size: 11px;&quot;&gt;&lt;b style=&quot;&quot;&gt;Data Model: &lt;/b&gt;None (as-is)&lt;/font&gt;&lt;/div&gt;&lt;/div&gt;" style="text;html=1;align=center;verticalAlign=middle;whiteSpace=wrap;rounded=0;" vertex="1" parent="5NriRDD_kzUD7KnS0G-X-29">
          <mxGeometry x="1.0658141036401503e-14" y="275.81632653061223" width="154.48" height="162.06763038548755" as="geometry" />
        </mxCell>
        <mxCell id="5NriRDD_kzUD7KnS0G-X-42" value="" style="endArrow=none;html=1;rounded=0;fillColor=#ffe6cc;strokeColor=#d79b00;" edge="1" parent="5NriRDD_kzUD7KnS0G-X-29">
          <mxGeometry width="50" height="50" relative="1" as="geometry">
            <mxPoint x="15.94328912466841" y="264.4959373659374" as="sourcePoint" />
            <mxPoint x="144.06" y="264.5" as="targetPoint" />
          </mxGeometry>
        </mxCell>
        <mxCell id="5NriRDD_kzUD7KnS0G-X-46" value="" style="group" vertex="1" connectable="0" parent="1">
          <mxGeometry x="675" y="150" width="170" height="520" as="geometry" />
        </mxCell>
        <mxCell id="5NriRDD_kzUD7KnS0G-X-33" value="" style="group;fillColor=none;strokeColor=#FFF2CC;container=0;" vertex="1" connectable="0" parent="5NriRDD_kzUD7KnS0G-X-46">
          <mxGeometry y="40" width="170" height="480" as="geometry" />
        </mxCell>
        <mxCell id="5NriRDD_kzUD7KnS0G-X-36" value="&lt;b&gt;Gold Layer&lt;/b&gt;" style="rounded=0;whiteSpace=wrap;html=1;fillColor=#fff2cc;strokeColor=#FFF5B5;" vertex="1" parent="5NriRDD_kzUD7KnS0G-X-46">
          <mxGeometry y="-10" width="170" height="40" as="geometry" />
        </mxCell>
        <mxCell id="5NriRDD_kzUD7KnS0G-X-38" value="" style="html=1;verticalLabelPosition=bottom;align=center;labelBackgroundColor=#ffffff;verticalAlign=top;strokeWidth=2;strokeColor=#d6b656;shadow=0;dashed=0;shape=mxgraph.ios7.icons.data;fillColor=#fff2cc;" vertex="1" parent="5NriRDD_kzUD7KnS0G-X-46">
          <mxGeometry x="60" y="110" width="50" height="70" as="geometry" />
        </mxCell>
        <mxCell id="5NriRDD_kzUD7KnS0G-X-50" value="&lt;div style=&quot;text-align: left;&quot;&gt;&lt;font style=&quot;font-size: 11px;&quot;&gt;&lt;b style=&quot;background-color: transparent; color: light-dark(rgb(0, 0, 0), rgb(255, 255, 255));&quot;&gt;Files Type: &lt;/b&gt;&lt;span style=&quot;background-color: transparent; color: light-dark(rgb(0, 0, 0), rgb(255, 255, 255));&quot;&gt;T&lt;/span&gt;&lt;span style=&quot;background-color: transparent; color: light-dark(rgb(0, 0, 0), rgb(255, 255, 255));&quot;&gt;ables&lt;/span&gt;&lt;/font&gt;&lt;/div&gt;&lt;div style=&quot;text-align: left;&quot;&gt;&lt;span style=&quot;background-color: transparent; color: light-dark(rgb(0, 0, 0), rgb(255, 255, 255));&quot;&gt;&lt;font style=&quot;font-size: 11px;&quot;&gt;&lt;br&gt;&lt;/font&gt;&lt;/span&gt;&lt;/div&gt;&lt;div style=&quot;text-align: left;&quot;&gt;&lt;span style=&quot;background-color: transparent; color: light-dark(rgb(0, 0, 0), rgb(255, 255, 255));&quot;&gt;&lt;b&gt;&lt;font style=&quot;font-size: 11px;&quot;&gt;Load:&lt;/font&gt;&lt;/b&gt;&lt;/span&gt;&lt;/div&gt;&lt;span style=&quot;background-color: transparent; color: light-dark(rgb(0, 0, 0), rgb(255, 255, 255));&quot;&gt;&lt;div style=&quot;text-align: left;&quot;&gt;&lt;ul&gt;&lt;font style=&quot;font-size: 11px;&quot;&gt;&lt;li&gt;&lt;span style=&quot;background-color: transparent; color: light-dark(rgb(0, 0, 0), rgb(255, 255, 255));&quot;&gt;Batch Processing&lt;/span&gt;&lt;/li&gt;&lt;li&gt;&lt;span style=&quot;background-color: transparent; color: light-dark(rgb(0, 0, 0), rgb(255, 255, 255));&quot;&gt;Full Load&lt;/span&gt;&lt;/li&gt;&lt;li&gt;&lt;span style=&quot;background-color: transparent; color: light-dark(rgb(0, 0, 0), rgb(255, 255, 255));&quot;&gt;Truncat &amp;amp; Insert&lt;/span&gt;&lt;/li&gt;&lt;/font&gt;&lt;/ul&gt;&lt;/div&gt;&lt;/span&gt;&lt;div style=&quot;&quot;&gt;&lt;div style=&quot;text-align: left;&quot;&gt;&lt;font style=&quot;font-size: 11px;&quot;&gt;&lt;b&gt;Transformation:&lt;/b&gt; None&lt;/font&gt;&lt;/div&gt;&lt;div style=&quot;text-align: left;&quot;&gt;&lt;b&gt;&lt;font style=&quot;font-size: 11px;&quot;&gt;&lt;br&gt;&lt;/font&gt;&lt;/b&gt;&lt;/div&gt;&lt;div style=&quot;text-align: left;&quot;&gt;&lt;font style=&quot;font-size: 11px;&quot;&gt;&lt;b style=&quot;&quot;&gt;Data Model: &lt;/b&gt;None (as-is)&lt;/font&gt;&lt;/div&gt;&lt;/div&gt;" style="text;html=1;align=center;verticalAlign=middle;whiteSpace=wrap;rounded=0;" vertex="1" parent="5NriRDD_kzUD7KnS0G-X-46">
          <mxGeometry x="15" y="280" width="140" height="150" as="geometry" />
        </mxCell>
        <mxCell id="5NriRDD_kzUD7KnS0G-X-41" value="&lt;font style=&quot;font-size: 13px;&quot;&gt;Business-Ready Data&lt;/font&gt;" style="text;html=1;align=center;verticalAlign=middle;whiteSpace=wrap;rounded=0;" vertex="1" parent="5NriRDD_kzUD7KnS0G-X-46">
          <mxGeometry x="27" y="190" width="120" height="30" as="geometry" />
        </mxCell>
        <mxCell id="5NriRDD_kzUD7KnS0G-X-58" value="" style="endArrow=none;html=1;rounded=0;fillColor=#fff2cc;strokeColor=#d6b656;" edge="1" parent="5NriRDD_kzUD7KnS0G-X-46">
          <mxGeometry width="50" height="50" relative="1" as="geometry">
            <mxPoint x="7" y="250" as="sourcePoint" />
            <mxPoint x="167" y="250" as="targetPoint" />
          </mxGeometry>
        </mxCell>
        <mxCell id="5NriRDD_kzUD7KnS0G-X-31" value="&lt;b&gt;Silver Layer&lt;/b&gt;" style="rounded=0;whiteSpace=wrap;html=1;fillColor=#eeeeee;strokeColor=#B3B3B3;" vertex="1" parent="1">
          <mxGeometry x="445" y="140" width="185" height="40" as="geometry" />
        </mxCell>
        <mxCell id="5NriRDD_kzUD7KnS0G-X-49" value="&lt;div style=&quot;text-align: left;&quot;&gt;&lt;font style=&quot;font-size: 11px;&quot;&gt;&lt;b style=&quot;background-color: transparent; color: light-dark(rgb(0, 0, 0), rgb(255, 255, 255));&quot;&gt;Files Type: &lt;/b&gt;&lt;span style=&quot;background-color: transparent; color: light-dark(rgb(0, 0, 0), rgb(255, 255, 255));&quot;&gt;T&lt;/span&gt;&lt;span style=&quot;background-color: transparent; color: light-dark(rgb(0, 0, 0), rgb(255, 255, 255));&quot;&gt;ables&lt;/span&gt;&lt;/font&gt;&lt;/div&gt;&lt;div style=&quot;text-align: left;&quot;&gt;&lt;span style=&quot;background-color: transparent; color: light-dark(rgb(0, 0, 0), rgb(255, 255, 255));&quot;&gt;&lt;font style=&quot;font-size: 11px;&quot;&gt;&lt;br&gt;&lt;/font&gt;&lt;/span&gt;&lt;/div&gt;&lt;div style=&quot;text-align: left;&quot;&gt;&lt;span style=&quot;background-color: transparent; color: light-dark(rgb(0, 0, 0), rgb(255, 255, 255));&quot;&gt;&lt;b&gt;&lt;font style=&quot;font-size: 11px;&quot;&gt;Load:&lt;/font&gt;&lt;/b&gt;&lt;/span&gt;&lt;/div&gt;&lt;span style=&quot;background-color: transparent; color: light-dark(rgb(0, 0, 0), rgb(255, 255, 255));&quot;&gt;&lt;div style=&quot;text-align: left;&quot;&gt;&lt;ul&gt;&lt;font style=&quot;font-size: 11px;&quot;&gt;&lt;li&gt;&lt;span style=&quot;background-color: transparent; color: light-dark(rgb(0, 0, 0), rgb(255, 255, 255));&quot;&gt;Batch Processing&lt;/span&gt;&lt;/li&gt;&lt;li&gt;&lt;span style=&quot;background-color: transparent; color: light-dark(rgb(0, 0, 0), rgb(255, 255, 255));&quot;&gt;Full Load&lt;/span&gt;&lt;/li&gt;&lt;li&gt;&lt;span style=&quot;background-color: transparent; color: light-dark(rgb(0, 0, 0), rgb(255, 255, 255));&quot;&gt;Truncat &amp;amp; Insert&lt;/span&gt;&lt;/li&gt;&lt;/font&gt;&lt;/ul&gt;&lt;/div&gt;&lt;/span&gt;&lt;div style=&quot;&quot;&gt;&lt;div style=&quot;text-align: left;&quot;&gt;&lt;font style=&quot;font-size: 11px;&quot;&gt;&lt;b&gt;Transformation:&lt;/b&gt;&amp;nbsp;&lt;/font&gt;&lt;/div&gt;&lt;div style=&quot;text-align: left;&quot;&gt;&lt;ul&gt;&lt;li&gt;&lt;font style=&quot;font-size: 11px;&quot;&gt;Data Cleaning&lt;/font&gt;&lt;/li&gt;&lt;li&gt;&lt;font style=&quot;font-size: 11px;&quot;&gt;Data Standardization&lt;/font&gt;&lt;/li&gt;&lt;li&gt;&lt;font style=&quot;font-size: 11px;&quot;&gt;Data Normalization&lt;/font&gt;&lt;/li&gt;&lt;li&gt;&lt;font style=&quot;font-size: 11px;&quot;&gt;Derived Columns&lt;/font&gt;&lt;/li&gt;&lt;li&gt;&lt;font style=&quot;font-size: 11px;&quot;&gt;Data Enrichment&lt;/font&gt;&lt;/li&gt;&lt;/ul&gt;&lt;/div&gt;&lt;div style=&quot;text-align: left;&quot;&gt;&lt;font style=&quot;font-size: 11px;&quot;&gt;&lt;b style=&quot;&quot;&gt;Data Model: &lt;/b&gt;None (as-is)&lt;/font&gt;&lt;/div&gt;&lt;/div&gt;" style="text;html=1;align=center;verticalAlign=middle;whiteSpace=wrap;rounded=0;" vertex="1" parent="1">
          <mxGeometry x="445" y="420" width="160" height="230" as="geometry" />
        </mxCell>
        <mxCell id="5NriRDD_kzUD7KnS0G-X-32" value="" style="rounded=0;whiteSpace=wrap;html=1;fillColor=none;strokeColor=#B3B3B3;" vertex="1" parent="1">
          <mxGeometry x="445" y="190" width="185" height="480" as="geometry" />
        </mxCell>
        <mxCell id="5NriRDD_kzUD7KnS0G-X-53" value="" style="group" vertex="1" connectable="0" parent="1">
          <mxGeometry x="460" y="260" width="130" height="100" as="geometry" />
        </mxCell>
        <mxCell id="5NriRDD_kzUD7KnS0G-X-37" value="" style="html=1;verticalLabelPosition=bottom;align=center;labelBackgroundColor=#ffffff;verticalAlign=top;strokeWidth=2;strokeColor=#666666;shadow=0;dashed=0;shape=mxgraph.ios7.icons.data;fillColor=#f5f5f5;fontColor=#333333;" vertex="1" parent="5NriRDD_kzUD7KnS0G-X-53">
          <mxGeometry x="40" width="50" height="70" as="geometry" />
        </mxCell>
        <mxCell id="5NriRDD_kzUD7KnS0G-X-40" value="&lt;font style=&quot;font-size: 13px;&quot;&gt;Cleaned &amp;amp; Standardized Data&lt;/font&gt;" style="text;html=1;align=center;verticalAlign=middle;whiteSpace=wrap;rounded=0;" vertex="1" parent="5NriRDD_kzUD7KnS0G-X-53">
          <mxGeometry y="70" width="130" height="30" as="geometry" />
        </mxCell>
        <mxCell id="5NriRDD_kzUD7KnS0G-X-57" value="" style="endArrow=none;html=1;rounded=0;fillColor=#f5f5f5;strokeColor=#666666;" edge="1" parent="1">
          <mxGeometry width="50" height="50" relative="1" as="geometry">
            <mxPoint x="445" y="404.5" as="sourcePoint" />
            <mxPoint x="605" y="404.5" as="targetPoint" />
          </mxGeometry>
        </mxCell>
        <mxCell id="5NriRDD_kzUD7KnS0G-X-60" value="" style="shape=flexArrow;endArrow=classic;html=1;rounded=0;fillColor=#d5e8d4;strokeColor=#82b366;" edge="1" parent="1">
          <mxGeometry width="50" height="50" relative="1" as="geometry">
            <mxPoint x="132.5" y="320" as="sourcePoint" />
            <mxPoint x="235" y="320" as="targetPoint" />
          </mxGeometry>
        </mxCell>
        <mxCell id="5NriRDD_kzUD7KnS0G-X-61" value="" style="shape=flexArrow;endArrow=classic;html=1;rounded=0;fillColor=#d5e8d4;strokeColor=#82b366;" edge="1" parent="1">
          <mxGeometry width="50" height="50" relative="1" as="geometry">
            <mxPoint x="405" y="320" as="sourcePoint" />
            <mxPoint x="445" y="320" as="targetPoint" />
          </mxGeometry>
        </mxCell>
        <mxCell id="5NriRDD_kzUD7KnS0G-X-63" value="" style="shape=flexArrow;endArrow=classic;html=1;rounded=0;fillColor=#d5e8d4;strokeColor=#82b366;" edge="1" parent="1">
          <mxGeometry width="50" height="50" relative="1" as="geometry">
            <mxPoint x="630" y="320" as="sourcePoint" />
            <mxPoint x="675" y="320" as="targetPoint" />
          </mxGeometry>
        </mxCell>
        <mxCell id="5NriRDD_kzUD7KnS0G-X-70" value="" style="group" vertex="1" connectable="0" parent="1">
          <mxGeometry x="935" y="80" width="170" height="600" as="geometry" />
        </mxCell>
        <mxCell id="5NriRDD_kzUD7KnS0G-X-7" value="" style="rounded=0;whiteSpace=wrap;html=1;dashed=1;" vertex="1" parent="5NriRDD_kzUD7KnS0G-X-70">
          <mxGeometry y="38.25762711864407" width="170" height="561.7423728813559" as="geometry" />
        </mxCell>
        <mxCell id="5NriRDD_kzUD7KnS0G-X-10" value="&lt;b&gt;&lt;font style=&quot;font-size: 16px;&quot;&gt;Consume&lt;/font&gt;&lt;/b&gt;" style="text;html=1;align=center;verticalAlign=middle;whiteSpace=wrap;rounded=0;fillColor=default;fillStyle=auto;" vertex="1" parent="5NriRDD_kzUD7KnS0G-X-70">
          <mxGeometry x="30" y="10.169491525423728" width="85" height="56.17433414043584" as="geometry" />
        </mxCell>
        <mxCell id="5NriRDD_kzUD7KnS0G-X-64" value="" style="image;aspect=fixed;html=1;points=[];align=center;fontSize=12;image=img/lib/azure2/power_platform/PowerBI.svg;" vertex="1" parent="5NriRDD_kzUD7KnS0G-X-70">
          <mxGeometry x="54" y="111.86440677966101" width="71" height="94.67" as="geometry" />
        </mxCell>
        <mxCell id="5NriRDD_kzUD7KnS0G-X-65" value="" style="sketch=0;html=1;aspect=fixed;strokeColor=none;shadow=0;fillColor=#3B8DF1;verticalAlign=top;labelPosition=center;verticalLabelPosition=bottom;shape=mxgraph.gcp2.big_query" vertex="1" parent="5NriRDD_kzUD7KnS0G-X-70">
          <mxGeometry x="54" y="294.91525423728814" width="79.2" height="80" as="geometry" />
        </mxCell>
        <mxCell id="5NriRDD_kzUD7KnS0G-X-66" value="" style="sketch=0;points=[[0,0,0],[0.25,0,0],[0.5,0,0],[0.75,0,0],[1,0,0],[0,1,0],[0.25,1,0],[0.5,1,0],[0.75,1,0],[1,1,0],[0,0.25,0],[0,0.5,0],[0,0.75,0],[1,0.25,0],[1,0.5,0],[1,0.75,0]];outlineConnect=0;fontColor=#232F3E;fillColor=#01A88D;strokeColor=#ffffff;dashed=0;verticalLabelPosition=bottom;verticalAlign=top;align=center;html=1;fontSize=12;fontStyle=0;aspect=fixed;shape=mxgraph.aws4.resourceIcon;resIcon=mxgraph.aws4.machine_learning;" vertex="1" parent="5NriRDD_kzUD7KnS0G-X-70">
          <mxGeometry x="50.5" y="447.45762711864404" width="78" height="78" as="geometry" />
        </mxCell>
        <mxCell id="5NriRDD_kzUD7KnS0G-X-67" value="&lt;font style=&quot;font-size: 13px;&quot;&gt;BI &amp;amp; Reporting&lt;/font&gt;" style="text;html=1;align=center;verticalAlign=middle;whiteSpace=wrap;rounded=0;" vertex="1" parent="5NriRDD_kzUD7KnS0G-X-70">
          <mxGeometry x="59.5" y="213.5593220338983" width="60" height="30.508474576271183" as="geometry" />
        </mxCell>
        <mxCell id="5NriRDD_kzUD7KnS0G-X-68" value="&lt;font style=&quot;font-size: 13px;&quot;&gt;SQL queries&lt;/font&gt;" style="text;html=1;align=center;verticalAlign=middle;whiteSpace=wrap;rounded=0;" vertex="1" parent="5NriRDD_kzUD7KnS0G-X-70">
          <mxGeometry x="59.5" y="366.1016949152542" width="60" height="30.508474576271183" as="geometry" />
        </mxCell>
        <mxCell id="5NriRDD_kzUD7KnS0G-X-69" value="&lt;font style=&quot;font-size: 13px;&quot;&gt;Machine Learning&lt;/font&gt;" style="text;html=1;align=center;verticalAlign=middle;whiteSpace=wrap;rounded=0;" vertex="1" parent="5NriRDD_kzUD7KnS0G-X-70">
          <mxGeometry x="55" y="528.8135593220338" width="60" height="30.508474576271183" as="geometry" />
        </mxCell>
        <mxCell id="5NriRDD_kzUD7KnS0G-X-72" value="" style="shape=flexArrow;endArrow=classic;html=1;rounded=0;fillColor=#d5e8d4;strokeColor=#82b366;" edge="1" parent="1">
          <mxGeometry width="50" height="50" relative="1" as="geometry">
            <mxPoint x="855" y="320" as="sourcePoint" />
            <mxPoint x="935" y="320" as="targetPoint" />
          </mxGeometry>
        </mxCell>
        <mxCell id="5NriRDD_kzUD7KnS0G-X-74" value="" style="shape=image;verticalLabelPosition=bottom;labelBackgroundColor=default;verticalAlign=top;aspect=fixed;imageAspect=0;image=data:image/png,iVBORw0KGgoAAAANSUhEUgAAAgAAAAIACAYAAAD0eNT6AAAAAXNSR0IArs4c6QAAIABJREFUeAHsvQXYLEmRth37fewu7ossPri7u7u7DAsMroPr4u7uPsDi7gzu7u7uLssC+/1/3VAJMTFZVZkl3dXveeK6zqnq7qqUu/rtSAkxk4iACIiACIiACIiACIiACIiACIiACIiACIiACIiACIiACIiACIiACIiACIiACIiACIiACIiACIiACIiACIiACIiACIiACIiACIiACIiACIiACIiACIiACIiACIiACIiACIiACIiACIiACIiACIiACIiACIiACIiACIiACIiACIiACIiACIiACIiACIiACIiACIiACIiACIiACIiACIiACIiACIiACIiACIiACIiACIiACIiACIiACIiACIiACIiACIiACIiACIiACIiACIiACIiACIiACIiACIiACIiACIiACIiACIiACIiACIiACIiACIiACIiACIiACIiACIiACIiACIiACIiACIiACIiACIiACIiACIiACIiACIiACIiACIiACIiACIiACIiACIiACIiACIiACIiACIiACIiACIiACIiACIiACIiACIiACIiACIiACIiACIiACIiACIiACIiACIiACIiACIiACIiACIiACIiACIiACIiACIiACIiACIiACIiACIiACIiACIiACIiACIiACIiACIiACIiACIiACIiACIiACIiACIiACIiACIiACIiACIiACIiACIiACIiACIiACIiACIiACIiACIiACIiACIiACIiACIiACIiACIiACIiACIiACIiACIiACIiACIiACIiACIiACIiACIiACIiACIiACIiACIiACIiACIiACIiACIiACIiACIiACIiACIiACIiACOwOgcOZ2S3M7Ki702S1VAREQAREQAREYCyBY5rZXc3sB2b2/5nZ9cYWpPtEQAREQAREQATWT+AkZvY4M/t9q/hR/vx7xfqbrhaKgAiIgAiIgAjUEjizmT3fzP4cFH8aADAgOEJtobpeBERABERABERgfQT+ycwuZmav61D6Sfmn41XW1wW1SAREQAREQAREoJTAv5jZ9c3sc4WKPw0ADiqtQNeJgAiIgAiIgAish8CRzex2ZvbdSsWfBgC/MjMGDxIREAEREAEREIEdIHBCM3uUmf1mpOJPAwCOl9mB/qqJIiACIiACIrBPEzi5mT3bzP40QvF/zMzuZ2b/L9z7on2aqDovAiIgAiIgAismcJoBi34/o/fnn2/6dF8zO4Xr2/vDAABvgCO5z3UqAiIgAiIgAiKwZQJnaBX/X4LS9ko+nielf+qOtt8mUxYGhBIREAEREAEREIEtEzhX68oXl+ujsk+vf2tmTzWzMxW0+zhmFgcUbym4T5eIgAiIgAiIgAgsROB0ZvbSzAw9Kfp4/GIb3vdole05ONTxv2Z2vMoydLkIiIAIiIAIiMBEAuzxvyxjoBcVPq//aGb47593Qp03DgMAyr3DhPJ0qwiIgAiIgAiIQAWB/czseZkl+Zzi/3ET1veeZkZSn6mC0V90Ifzs1EJ1vwiIgAiIgAiIQD8BlttJ0MNsPqfs/XvfbIP9HL6/yOpPn5ip+zzVpegGERABERABERCBQQLMvB9sZn/IKF+v9Dn/VhPh7wAzO8xgqeMuYNshGhmyGiERAREQAREQARGYicD/NbObmtmPChT/D8zs1hsK0fv20B4GJrUGhTMhUjEiIAIiIAIisLcIXMLM2F+PM/z4GuX7ADM74ga7TzbA2I7bbrB+VSUCIiACIiACe44AS+xvzCjYqHBZhiccL/H9Ny2sTMQMgryWiIAIiIAIiIAIVBI4qpk9qbHY/3OB8v+KmV2ksvy5L79ypp3nm7sSlScCIiACIiACe5nAtczshxmFGmf9/2Nm9zezw64Axj+Z2YdDm1++gnapCSIgAiIgAiKwegL4878pKNGo9ONrjP2I+ne7JuzvWZtMfSjibcnFQ9sJFXzSbTVG9YqACIiACIjA2gn8s5ndvdCtLw4A4ms8BF5jZv/ZzMgv3Wwj/NuGOx8HMMQpkIiACIiACIiACAQC7JNHA7qo1P3rX4VZtv+s65xYAAwKiB1wbTM744LugScxs9+5NpJgCHsGiQiIgAiIgAiIgJkdrlGMj80E0elS4un9TzXx/k/bxAK4eaPIX5UJxZuuGzpiXPhVM3tzExaYaH4Hmtnl2kyAx21sC/7PhKcUUwXfZUJZulUEREAEREAE9gyBM5vZ590suUtZY+SX+8xH2mP74ILt7P7jIwYUufJ5j/177As+YWavN7NntQaHBBe6hpld0swu0NodnNzMjt8G/2HggB0Cg5NU9nfNjHZKREAEREAERGCfJIByvGuz39+l2JPCZFbO1sCFexL8YPSXk2Ob2fXM7AVm9j2nhFPZmziSm4Clf1/X9XON1XsiIAIiIAIisNcJnLhR6O8OStErSM5/2kT7u2oAce+Oe5ihXylcm3vJnvz+ZvbU1tYgxu2PbVjq9ZebCIUEDJKIgAiIgAiIwD5DgNnvrzsUeVK4H2uW2U+QIcKqwcEd9/6+iRJ4jsw9fW8dvd3rf6iZvbcwk2Bq49Tjdfsaps9EQAREQAREYK8QIEDPczqUt1em7zezo/R0mmV99tH9Pen8Z2Z2up57hz7613a7AUO9l5gZUQWXWiX4olYBhh6HPhcBERABEdh1AhjFfaRDaSflzfELhW5yZ+uJE0DUwFPMCIx0w+c3MxL6YPz3ocZLYIz7oe9nOscNUSICIiACIiACe5IAyrMkZe9vGmO9k1UQYAk9KdJ4/M4Gou4dz8wuZma4+RHgh9gCn2xe/7ynXbGdeD9McTGswKVLRUAEREAERGBzBG5pZn8qVIg3HtGsh/eU/f0mLDDZA7chR2jrxnvh8maG3QOeCgwQ4iDgmttooOoUAREQAREQgSUIsJf+jIyyi8ovvf7gyLj9+Ng/t6eeXzT5BM65RAcryyQE8cs62vn1BSMRVjZTl4uACIiACIjANAKkw/1Dh8JLSt8fp6TKJajOG3rqYr/+otO6M+nuq5nZT3raBwcCCklEQAREQAREYE8QYD//7QOKD+X3gRl6y4rDq3vqYhviRjPUU1MEho8v7mjT/4b3GSAcuaZwXSsCIiACIiACaybAEv0tzAwffT/j9+cov1e0GQBZrh8bIIeVAMIC+7Lj+UNGbjXUMEaRP6inz19qcwx8JrT1gTWV6FoREAEREAER2AUCpzKzjwaFF5Vzev3jJjnQw8xsv5Edu1uT/jfOsFPZHInlTwCguYUByK16lvuJJ/A0M8OtEGGw49vJIAnPAokIiIAIiIAI7CkCKEhmxoTt9Qq56xzl+NImeNCJRlDAPa8v9j8pgc8+otzcLYdpMgnikkh4366+fLrNZRDvx33Q3/PMeIFei4AIiIAIiMBeIYDB3zeC4vNKMJ5jTHhfMzt8BwBSCTNzJgIgGfnICXDDdrBBIp5YXnrNZ7ef4Id/xNa1j8FEKjMev9nmHujy9acMog2m+xgcnaWjn3pbBERABERABHaeAKF+X+4UX1KAfcdvt4Z+72mSBH3WzPDz/+/KMnLlU15NAKJjNXYKDxgI+INdA37//1LwpEiH7AcquER2DRgKitMlIiACIiACIrB+AijJoXTAOaU993vsvx9oZizn5wRjRlYXnj8w6PhUk6fggMaGgVWJGsEN0PdpTFCkmvp0rQiIgAiIgAhsnQDGcLlldBL7/DIoRq8klzgnF8FlHJHjNrNzjAr9Mn2sl2V7VjMu6O4bc+pXREiFvISh4ph26R4REAEREAERWIwAyu5NQdmzxH+edjmcZXfOmRk/0sxYtl9y5eAtbWz/P4c2eeWPV8MdZ7Tcx30QF8FUx1MXo62CRUAEREAERGBFBPD/f7RTgChClDz5BHKCUSDW/g8emKEnhTrH8QdNeuB7z5xt0PfttM2g4rctA7wg5vJU8HXoXAREQAREQARWSQALfm8Uh+J+es/+fOoEKYIfZWbEEZhD2efKQCm/qolpcNnGywC3xiXkGs0gg5gB1P+xgn4v0QaVKQIiIAIiIAJbIXDejCJnWb4kXC73JgWaU+JzvYeNwlPMbEoegy64DGRSO+/RdZHeFwEREAEREIG9SIBIgNH4joA6xNgfkqGQwEm5znX8RBNi+H5mRmrfM5oZuQmmCN4I72oHAayGsDUgEQEREAEREIF9hgDGfzGEMB4DJx8gQGCgXIyAu7SBee7QGhPi1sfKAnH5fzTjygGeAcQtINUv/zBopHzOiWHA0v472rqJdviCNkwwoYLTP7Ya0gDlI9oKGHji+lgEREAERGDPETiCmb3RKUOUIsqUmXafPCbcw30srfcJgXtYecC48KZm9tA2HPH7WuWdFPI2jnfva7g+EwEREAEREIG9SADF/F9Bof98wEr+2JlVAGbiU6LssSJxUTO7bWuYyNJ/n6vgnAMFtgJOsxcfrvokAiIgAiIgAn0EcBNkqdwr1V+Y2Vl7bsrZAlyk5/oxHxH1D8NDIgm+uhkc0CbfxjnPP9nmOcDjgZURiQiIgAiIgAjsEwQYBLBv75UqKwFn6uj9OcK13PeMjmvneps2oqDv2mwlsHWA66Bv71znlItNwWvaWAjXaTlMNUCci4PKEQEREAEREIFZCbCE/9ygVAmd27U8jgGdV7rM0DepJNmKuEljU0AQId+Opc7ZkiCi4Msa6mRRvLqZnVpGhLN+B1WYCIiACIjAlggwCHhRUKh4B/x7pj3/Ea5D8V45c91Sb5FpMIY5Xkr595VLVEXcKLGlILbAFc3sJEt1WuWKgAiIgAiIwFIEMAzEhc8rPfbIjxQqPGyzP/+rcN1B4ZolXlLvfTKGiLT3T60RoW/7i83sCa0bIOckB3qbmWFoyODmN6EP/t4p56yIvL11i7xuu5LCNoZEBERABERABFZL4Ihm9uGgGBkUxDC9LwzXEMVvSSV3iUwQo6Sk398o99M1LoYMENJ7HG9QQJlBD6sc5Ai4gpndqunHA1q7CMrFPdKXOfac9MgfNLMnm9mN2kBEU7wnCrqmS0RABERABESgjsAxmwh8XwyK7zlNZL5/csVcLXyOYjy/+3yu0+M0++0vydRFfaQ2vnlwQ/y1u/aBMzWCQRExEtj7xwYAWwDSHE91V6StrBQ8qB180FeJCIiACIiACGyVAPvseAP4Ge/9XYtQin8Inz/cfT7H6VWbGTnGiL4N6Zwl/ZzC/Kq7nmuWFFYPztIaJJJqmAiLU1MqszVBu3GBpOwlV1WWZKOyRUAEREAEdpgA0fviLPf6rj+vdcoWxcyqwRxylMaYLhdvgDq+02xRXLqnEpbt0yCB8MCbFgYFJDO6V2tvwNJ/as+YI6sEb2hdIM+T2YrZdP9UnwiIgAiIwD5CgAh9XnGh0NhvR3DF859xPpRToL2183DhNuZ/LJdshM80MwYHfeLj/WOouG1hQEBQI7wEsKX4XYZZ7Gvfa/izbYAx5AXkirjtx6v6RUAERGBvE3hWUFrM9NkCIE5AVFa3GYkCAz7yCuSC/BBu+JKF5ZL4x7fp3wrv29RlGFPeLbOy4ttcc84KAYOem8kFcVOPUPWIgAiIwL5D4PBm9rmgWPECwCgwhukldG+tsGqAP31O8b3OzGqUOBb8vpxz1zZmwesvZGbvDO3zbZ3j/Mtm9jgzu4yZ8dwkIiACIiACIjCJAMv+0eiP7H4xqyCW+TWGa1fKxBRAEWJMx/aD9zwo6UDcsti/5KaFr0Hxv3tA8WNASJyCOQYBqQzSN2M/cEDlIGphHCpeBERABERg1wjcIigoFMwrwnsoH/IFDAk+8KQGZm8/Kax0xPeeffMxcq1Q3v3GFDLTPeRTGIpYSGAisiEi3vCRVMW4HDLAit4YiVPN8S/t6gNbNCf4W3X6XwREQAREQATKCZAoxyue3J49yqtPyLrnjfV8eVjuH7/v5oHPyEzoy2OrYtNCOGCyLObY0DYGPWyVxKyLJCJKbSfXgJdTmNn12qiGMUZDuqf0SP0Ee8IWAXdPiQiIgAiIgAgMEiBqXgwDHBXPwT2lHM/MPu4Unb/39WZGKuApwlaFLxNFtyk5cpNS+BEDsQBYESDqYJTjhnYTjKlPSIhEYCJCHX8+3Ov7X3L+gTag0tH6KtRnIiACIiACIoDFeZ9iwVUthg6G2ik7XPwoi2h/uXtqaR8rtI3l86WF7Qz22fvCBmP8R3yALvGRFVmurw0TfMImOyI2Ga+ckOOALZ2Xmtnl5F7Y9Zj0vgiIgAjs2wQwzHtXULRxQHCugOjMZvbjjnueXWk4GIo+xEsMEOPS+9EPccW8LwjOw7ZF7H96zXI9CnVIHuPKYCAxRRhIEU/hYT3eFal9XUfa8OhmQHGGKQ3RvSIgAiIgAnuPwKnaDHxdCuTOrssoya5tA2asNV4DrtjO0584ZUr7SowSOwvr+IDl8qd3GDFSJ8mRMLgrXdX4iGvzezrqHPs22y43br0Mup5D13PkfaIrXrOiL2PbqftEQAREQAR2hAD7z12KgzDBCIZuXUoHxTJ1z7+t5hCHGLPgOof4dPoLyuta7id08mMbX/ya/XSMIn3IZfIKLCVEJmRF4vk9z6XrmRKQiRDHbLNIREAEREAE9mECGKrh959TGOy9s3zMTDj3OUl7hgzdxqJ9R6jz3mMLCveduA3nm+sP733IzNjqqJXouXC72gJGXv+vbRZCPBZ8FsWu/qX3/9i6LJ5tZL26TQREQAREYA8QYKk/KYZ47FIqBPmJLnBzoiCbnm8Ls90pgs0DaYd/E8pNdTAIIkZCreFeahP+/qksjhdPH2zwSChmgjK9yMx+G9rj2xbP8SC4woiATRvsmqoSAREQARFYggCzyO9VKAwUyF2XaIgr8/GhPSipsXKiNqtfVHzpNdH7cmmJa+pj5SCVxxEXv20K2zKkYsYjgNm+b1vX+SfaAURt5MZt9lN1i4AIiIAITCRwh0IlgfIgJO7YmXJpM9mn9ooKo8AxcqOepfGftoZxY8r195DnwHstsDWyJjlGYytwYCYXhOfrzz9lZlfRisCaHqHaIgIiIALLEcCIDYXoFUHXOcrufe0qwFJR6HJxCobSCHs6BPQhgmBXHwhYRECkOYTofr4eXCLXKmzbkG2xayvE9wNDzOsv4OGxVjZqlwiIgAjsswTIT+8VQMl5CknLlgAZAeeSK2faUmpzcP6eYEXYNKCw5xQM8Dwr3PXWLkdq3Qrj1oXvRzr/bGMceam1d0jtEwEREAERGE+ApWIiyaUf/jHHzzTVYxA3NfgMiYRi/fix9wnbEgxiiMIX7+U1fvon7StgxGe45EUvCuIr7JKcvg1H/KcOboklWQl3rW+79BzUVhEQARHYKoG+ZfOkCEqP7IUTye6cI/aTWU2I9dyzhwzuiG/J3EMZrFLQjtKAPj3VHOqjy4Y6MabcFSO6I7aGgs8xsxh4KbJPrxkk1MZIOBQ0vSECIiACIrA+AuS9Tz/2cx6/a2ZY9hPetiRqIPv9sX4UVU4IWfydzPXcj13DJXI3zfQebfLtfMZM5S5VDPkGbmlmb67wDvD9S+fEhriV8g0s9ZhUrgiIgAhsngCz1y8HpZZ+9Oc6Mtt8ZrMkfxkzwwWxS6L72nszF966J3Mf8f1xAVxKWP7/RWCF7cLahG0PbDT68h2MfbZkMSQIkkQEREAERGAPELhHUGpjlUPJfYQYZtsBn/XDB3asGvgyfuA+R/kyiPCf+3Ms8QmMs6QQPMfXyYAF47o1CN4Zd+tJ2+zb3XWOcmfQ1fV5ep8tFnIq4HkhEQEREAER2GECGHqlH3d/ZLn7NZVR5vz9Q+d/aFPhYqV/1IzyQtGwb43fPcl2cuURoZCIf5uQV4c2vG0TlfbUcYJ2pk9AnxybofdgRx8IY7xfO5j5ZkVZbMPIW6DnAekjERABEdgFAqTAjQqDoDoIs++LNjP2hzcBY7D6j9fN8Rpl9PtM2fubWZdSIncBNgybECIH+uQ/9HlTAw/fP2wleC7kTvDBiEqfATYSzzOzq2dm8CQ08uW808x+F97zn6dzBooM4CQiIAIiIAI7SODBmR96tgZycnwzO8DMXpZxiUtKYa4jqwC5sr5mZqfMNW6h99hT9+3AOn6pxEixC3gzXN7MXjLSbRO//oeYGSmeuwwyyWXgWTMgxF6D4EkYOna5WiYmZB2kjRIREAEREIEdI4BlffoxT8fHFfThMGZ2vsY6/IGt0dmYWWmqr/RIVMJNKV8QEG/gK4EPkQWXFgY4rLr8ONQ9xInVFFwkMZgkG+KQsKrwbVcHz5Bn6uW0Zkafh+o+yMxqIjj6OnQuAiIgAiKwBQLMMuNyLzPOWiHvPMv2GPqVhhoeUir+c5bhyWaIe9umhJmtbwPn112ocpL6wI/8C35GHuuPr9k+IcnRdUYo4Ghc+ZSevuHWyYpCrN+//rqZnaOnDH0kAiIgAiKwMgIHhx92lNAUYeaMIvjPxjef7H5Dy8heiZScf7w1gmNLYkl5V+DCQAnjxDmF6HxPrNxSwaOCsMQk8okeFaVtywU2GprBM1jE4yBns5GeG1skd9qhIEmlvHSdCIiACOxJAjE3wJdm7uXR22x8uOwRoz8pi6lHlqyxZr92a7A4Z7PPlmknM+Y5hO0TjPHiAKOPB9ww4iOmAsaZUwTvih+F/l2posCTNAO8N4b7Y9tfJwPBCqK6VAREQAS2RABLf/8DjpX9EkLGuaE49L4dNec/bPbs729mWO3PIf8VmNCWs08smLaxKkIY4ZK+MdNmO4agQ3PGOsDF09f/ipH9ukZmIOHLJUQ0KxwSERABERCBlRJg/97/cKOk5xas6Wv2tn17as5JcsSS+pTIgBi+xW0Lth3GCgMHbCMw0hvqC9e8tt3Tn3u7gfbfNLSBBEdT0iWzmhAHFL6PbJtcayw43ScCIiACIrA8gZgkBqO0OQR7ALwKvFJI5yjZ3Ew7fT7lyCDmSWbG4KZWXplpL4qzRgi1zD47PvUl/SCDIdb7S3o5kHgpGnzW9quLwU0GAkc9SHYBXej0vgiIgAhsl0Dcjx6jOGMP8CdnCTunAFHQLCG/KvP5nNsEv2lm8/eqWELHeDGuVLAlUjobp88E7CG8bq7f/j0i6hGH4dQR3AKvsTv4cGgTxp5zZjQkLPEHQx2+v8SPGGu0uAASFSkCIiACIgCBJ4cfbhLLTBEsyola5xVAOieW/hXN7LiZKHusCqBIztCGqiU3fUwWlMqpOeLPX5LMJnpEUAe2BUNCfHws5Mlj0Ncutiiw4KctrI5sSojX4NtFO5YIqMRA45GZQVSq+6Ptc99Uv1WPCIiACIjAAAGUV/qR5njmgev7PmZP+VOhvFQ2eQAu3d5898w1L8oUjHJlH5m95hiWN5VbcmRmjydCVyKfmPSHMjHEY5+7S47WfHDfTLbA2B5WBA5sUiXjEbFpuVgmfPA9F24Eqzu/zTxfuHxrocHHwl1S8SIgAiKwNwncMPxYX2BkN0kw1BXDn/1nPA4Qlp4J6+sVJQr6jO3nXYdjtwGBUCL+3ppzAtacO1TA0nSu3Y8P16WXDApYvu9za2Swg+tejK6XytjEEV54SHg+H2oiODJTX1owpuxKOU2wqHMu3QCVLwIiIAIiMEwA/3KvJC4xfMuhriCs8M9COalM9uLP7+6Irodcx3J/qaDArjkhSRErCQSsSZLLiYBFfvQmwJWPJe5oTJf6yZGBze1X4AfPFsNbw/NgReMUqdMbOLIV1OUlAENlFdzAQ1AVIiACItBH4CxBUaRl+r57/GeX64kQh6sZgwMvOet/P0Dw1/adk+SG1YvvhvZ7hdx3zpbDWTtc9HxOBJbuH9rTR1YvCEpE+OBN7u33scltsdyq74aFPuvzBMHg82oL1atiRUAEREAECgiQF94rShR6qWD13rU3z4oACtYLrm7RsI9EP1MEt0UUHmFyfT9KznNtZ2mfZX6s/wne01Uus1jS6bLcvSYhA2DsF6sBc1r91/b3DhlbBJ4P7SSXgUQEREAERGALBIir75UlBnElgnKMbnOpHLLZYc0fheXxdE061gw4Ynn+NUobd7NU7tgjfuu0M8ZHSOURSpcBB0aAaxPa5LP80eZfmNnSuRNKOBACGQ+ExDEd8f64QUkBukYEREAERGBeAhiLpR9jjoSf7ROW3ske5+/x5+SJ7/Jvjz7yn15gZsqMEv9936aacxRm7vpvNIOCW5rZXIGS+hiP+YwZfi62wppm2Gz1sC0U+ZLb4YAxndY9IiACIiAC4wmwx+1/kK/aUxTBbl4arvf3EuCGqHM5OW/mvqWUE4OaLgM0396Sc1LhkstgE9bzOW6l790mw5fIhmsT3ExzBqMMApZKubw2BmqPCIiACKyCAL72XhGyVJsTlpffE6719zFDPnHuxva954R7cclbSqkeoQk687RQn29r6flDFlih6EE0+iOUarStIDDRMUaXuOyNXYMAbAJIdSwRAREQARHYAAGC93iFSKS+KCdoLLY/F67z9+Dz3bfPjEtYzCV/i1jJTK9JwNPlg+7bXHLO/vQDzOyfZ2rbEsUQ3Ihoh74/2Gbg3rlmwUYkZ2eBC+ba275mrmqbCIiACBQTICysVx6XDHdi5d7nase+PqF9+wRl7+sgQM2caW6pG9uEeyyUdphY+l1bG3393sRnhBf2bDnHO2EXhO8WBqOx/QwWY8CmXeiP2igCIiACO0WAGbP/Ab6Qaz1GW11GcdxD2N++cLmpKFLq+joIPzynsPXw3lCHry+ds+2QzmuPhLdd2/L0zTL9YfWjNIHRnM9gbFnEochFVcROgOiSEhEQAREQgYUIkJzGK8MUuAdll3PbSteS3KUkvj2xANI9HPGrZ0tgLtm/x1c/1YtrHAZmXw1tSZ+XHllaJ0HQGgL+nC2z78/zOtNcYDdYzoU7vmuEfWaLSiICIiACIrAAARSjV4AoEJbs2f/27/vzD1Qo8egySOjdOQSjxBf3tJH2YlT2qHZGPEc+GhJZAAAgAElEQVSMgMQADwOMJ7clDLxy+QtwU9xVYcCZ+87hKtqVxGlX+6p2i4AIiMAqCLBvnhQbR0Lk+tfx/F0VS8xY4/vlXZLk4KI3VZgx4nIY2+Zfs0KRMhveuudaXOVyvum+rNz5J2bqSy0LVh9en+kP7pm7LjfpCC71utbGY9f7p/aLgAiIwKoI1LjLvbNC+dNJQgV75fnEiT3HGp8UvLmZYqoHA7K7OoWRWypP1z6/bQ8zTO7ps3dI9/gjro8nm9in2tvvFZjSHmwb5txWqW3TnNfnkjPRx0fMWYnKEgEREAERMHtTRqF4JZfOmXXWWu6/35XNcvxJJgA/jZkx607tyR2JhOfdEY/aKsfctVj2x/6gRB/WkSAoVwbvEfnwdBP6VXMr9hpx8IP/P4OcvSKscHQFcVK0wL3ylNUPERCBVRCIPuQ5Rccy+b9UthYXL1/WQZX3p8sJcUsmO7YPfHn+nO2AGL+A+2i3vy6dEyTneKmCzJG0uaQoTtcPHclxv3RSINqbc5nDE2CvCSsyRGCM3IkRcM691ln1RwREQAS2QQB3MUKwxh9a/xpDuzER+x7jysV6fsws+Thm9kZXjm8X58yGqSdnJHa7jvuYMZMxr0RIjMRgIdabe01sAwYOSwhbH2RNjPU+e4nKVlImWSoZWMU+s92xTQPMleBRM0RABERgGoFcfH7/g/s8t5deUxNL6z7e+2trbm6vRfnmIsWl9n0sk244VXOOnmX8G6eLCo+E0/2vjCJK7fBHAiZN2eboatKjM/XT/7iF0XX/rrzPFgwrKQSjumGHsSO8X7grHVI7RUAERGCtBFha9wrMnz99gr/7tUO5pTNuOOE5QCQ73xZ/TkCeA3sGJrgH5lzkKGOKESI5Eohh4NuSOyfWwDFnfOAkZ4pplxlcnWjGOjZV1LHaCH+4nt67yR3xXDN7m5l9wcx4rjmeXe8pUuCmnprqEQER2JMEntnxo/v4iUlw3u7KfXcFOYzZvuTujT/+GIeRl6BL2PfvMiDDfXFqTH8s/ol+GNsVX5M0icyJU4UtBe9GST1se1x8asEL3s/g5wLN1slNW8t97DBgVqvgI9P4+o4L9kFFi4AIiMCeJ5BTtlPdrVCSfsZ66QKKQ3H8WVq/ckE5KIWoKHhNRLmSkMUFVdjhzIy991w9/j2MHhmQjJXDN6GHP5OpZy2Kj/DLlzKzOzTR+lgtYtDjt308iznOsQcgIdWbm9UfEjTtFbfHsd8P3ScCIiACownELIDpR5of8vuY2RlHlkwK3VTWJwuUIIqkK80ws93HdRj5xeadryMREHEBUkCgeM+U17cvMKAkyNJYwf4icUzHZ40tbMJ9DHhYmcF2gpUhVnRKtkJSm0uOGFBi5MiWAFsDuPtdrvHEIE8Fbp21HigTuqtbRUAERGDvE4ghgHM/1GT6w5o+Z2WfI8QSOz/mqaxr5i5y712vR5ng848CKBGiC+KPn+pNR1YihtpQUn7XNVcys99l6k31M4DxyZW6yonvs3yeykhHtjCWVoRY1xNl8c6t4SN78/QhtWHKEW+Kg1v7Dson9C8pgbH5kIiACIiACGyQQNf+f+5HnlC5RMobsjpnmT7djzEcS/s5IUBPl2U9CpVl5VLXQ+p4h6s31c+RpeKlhdlxzj8/tQPFVxP+mOx4MQnT18wMb4Q5hS0GvEAY4JFSmO2gIZfQ1Ke+48+bQQ+DlSc3XMgpccHCpFFz9k1liYAIiIAIdBBgb5p98b4f8txn+GCTIrhLfPAcZrE5YUbcFccfd8ET5m7qea8rdCzGZ5vK2nfKnj7BEaPIkrbgwUB4Yc+e5fZT9/S/9CMMCv+jnYGTYGfqzP5PZkaa52e0XhkXM7PjljZG14mACIiACGyHALNWr2Rqzpklsk8bDdywzk9KheX4aAXP8jVhdnOzTK7H3a1W2Cf2BoepHyg4ghxtUrBl6Es3jM1An8CTpDepDxxRsmMs/pndY4l/t9Yroi+egq+v65wIfCRXIm8EAztSPC+9HdHHSp+JgAiIgAiMJNA1a+5SALn3Ccbil+kxHEzXscfrhRlsLo4/g4EnjIzsRsCdXPIelB3KeBvCDPiLjkPiwRFjxJP3NOru4T4GNthIlAgKn4ECz5VUzQwcfN0152w/kCeBJXwM/zCgnOo+WdIHXSMCIiACIrABAt79jxj7PxqpMEgdzB48/77dloFSTkaDzGq74vjjG07EvjGCLQKR8KJiY6bat0Uxpq7ae/Cu6FoJwNshtxWA4V1aPUl9uktPxfSfe+5vZu/tiXqYyuo70lZcFm/ZKns/qOtpgj4SAREQARHYNQLE5PcKgVj7KGqWdVEotb7cLOvj65/KTIZ3GL55m4D0OUZ+dwqrB7UMu1IY14b5ra239HrsGLqiEWIY54UBQxyA4froheV2BjZsvZCSORoJJrZDR9hjoMdKAaGWicwnEQEREAER2EcIoLC9omCf2Auz93s2lvi/Cdf5e/w5S9VYqfMey9wE3Ll8YwGes4wnpfDU5fnrd7QrKk3fp22ck8zme5m2MsA6etsgZtsxBsJLW/sJwicTR4BQuXD1zEvPeS7M7lmFwbtAs/ttfBNUpwiIgAisgAAKwPvpo0i6Yqpj2Z5LydqnfHAtzMXxxxWOWPpT5fQdyvCtK1VutBcXysgMuwfkkeEztgGY4Y8Jm4s9BYGXHtuE3iU+gWb3LWQdREAEREAEzK4YFA4zyz5rboK0vDzcE5WZfx3j1qOUnjRT2FaC1Hw50xbew31urcLSfVyy/3O7ypLzYPA8+84ZLGAH8ah2xWXNDNb6bNQuERABEdhnCOBn75UKe/RDwgCB+Ov+vpJzXPHONVR44efYKOQGIsyuT1VYxjYvY/WjhFnfNQwasM5/eOOSd9mZBlXbZKK6RUAEREAENkSAmOooEa9kSt3M8Kn/SLjXl+PPWVXAgn1O1zEiA/o6OGcGTDKatQox9FlxeX6Hu2LsT3zNs8Klj9wKGFkmz4q19lftEgEREAERWCkBZo5eyaCoS4PlMOPMxdr35aVzrptT+WOjgHtfKj8dhwLrbOMx4I+PASRKP26HpHb3HYm0iIcDKwbKdreNJ6g6RUAERGCPEWD2GI3RCOQzJMTs73K561Nkcxj80TYM2XKW9GTKW4uw945nAtb7fYmBcrxIcct9RNc70Vo6pHaIgAiIgAjsHQLMlqMCYlm5Twizi/V+vM+/Zhn+BhlvAVLGThWCCxFD39fHOWljY5jhqXXV3k+Mg5uZGd4HNVH3/tj2icRKuOXlggLVtkXXi4AIiIAIiECWAK5/MfHPV3qUD0vPz8ko3qiIsWC/UVvjaTPueaR6nSK5cMVEG6zJrDel/ngvwX3InIffPt4NkUfX68+0lvrYK7BFIBEBERABERCBjRDIBc6J0ehSQy4xkNXOK7nbppvaY1TYxJIfK+yjRxc5ltfPNLbAkfcRu5/ZOgaQsT2ehT8nFDKpjuGu7Hgjwes2ERABERCBaQQwxktR+pKSIl87/v1emJkSSa9UyRGhLgr56n30QLYPcN+rFfbCYzhi2nXN2oJGXs9qBkqfrYbEbOiI8R78SInbF1dhZJN0mwiIgAiIgAjUEbhJRok9MBRBUpmuuPU5xcdMv0ueEuojv0CNkOSGHPOxXmLgLyUMUs5uZg81M7ZGYt2513glEKL3QDM72VINU7kiIAIiIAIiMIYAhnIpQ19SYszQj9kWxioAIWlLZ/2U8fiBhlwoKFBSBNfI08P91ImV/JiVhL56Mb4jQh9hcyOjxCoeyW2AbcTVRqYv7muPPhMBERABERCB2QjcJqNM0+z/fD0pa6PiS6+fXaCIUaw+CdBHK3qDN0GqKx1JGRy3KyqKPMSlbIdcvM1VELPvpfrikdj6MDtnj9HkISrRCxEQAREQARHYJgH8938SFCpxAEg9S+z4Git2lOJLzAy3vBJ5mauX1QWyAw5JLskPPvJTMweypYBB4XPNDNuHqOBzr3/VpOe9uZmdYKjR+lwEREAEREAE1kaApe2o3Ij7/8XM+/G6+Pp1lZH9cJXzZVxyAA7RCGO7CIN7kYH7uj6mPAIRvTgYJfo29Z0zUJCIgAiIgAiIwM4ROE1lcJo+ZXhwYxzHLLpG2Fv3Zd594GYiEvrrOY8uhgNF/DUb4P6Nm+CrmzwEf8iUF8vve82qxbYDDQ31V5+LgAiIgAiIwKEIjMncl1OIH6zIFeAbge+7Lw8jvi4hBK6/lnPi6JcIbof42rNCkcsVEMutea2wvCVPQNeIgAiIgAishsCVMgp1jHL8RGMhjx3BGMFi/7euHcQhyMkZG3/7/3bXoaA/NLDiQEZDjBvf1WYDrFHqNddi9CcRAREQAREQgZ0gcGQz+25QqCg9gtoQjrZUAX6+0HCvDwrW86k+ltRjZjuSE33ZXcO1BA7CSDHKSdv0wgwOalwWU/1jjqTxlYiACIiACIjAThB4UlCoKD6W8bHev1/ms5xiZLaeU8K1ALwnAPUw2/dyUGgPCXWwHUiyXxt3n2h8m1L6ngdeABIREAEREAERWD0B/Pqjax/GcKdsW04Mfa/gcuffmcHtLoF6WKjvMumD1sUu1n9As5dP1ECiDH4p3Buvnfs1Gfpimfd17dWpCIiACIiACKySABbrX8goMcLUeiFefVR06TWBcdJgwd8z9jwGIcLYDzlzZt+f6IQ1oYhTm8cef9jGNbiVmZ3OzM6V4fLUtr06iIAIiIAIiMBqCTwoo8DekYlc98jMdShR/N6npu6NcK4S6rp/Gz73q+H9sUq85j7sIthyIC9CbpBzODMj7oAvE3dCiQiIgAiIgAislsB5M9bwRNDL7eNzrVdynJNil/fnFqzofV3PMrOcv7+/Zq5zjAlxPWTVgcx+JfLZ0N73ltyka0RABERABERgGwSw+v9GUFwYzF22ozHE6Wf5Oyna35vZBTuunfo2YXRTPRy9W6B/f45zbAZIInQ9M8NNcIw8L7QXrwmJCIiACIiACKySQFRaKNPHDLSUcMBcR2yASw1cO+VjDPrmUO65MhjkkJvgGk1in+NMaaS79/ahvWQIlIiACIiACIjA6gig/KJy/FhPCFsU5evbe9jvZo9+bmF/nfS/OYPE2Napr/9iZizT37nZ3ydOwFS5XOBJQiCJCIiACIiACKyKABnyfhEUFpn+Tt7RSvLXYxeA0sVVkKXyuYS2EGjIB/6ZqtyZ4fd5LMTyuf49ZnbDJtMhAYbGyKkDTzixZSIRAREQAREQgVUQwOXvo0FZMaO/RKZ1hPJ9gbsWRTlHgBti/ZPxjyBDlBkV8tTXKH/CCZ/HzJ7oBi8l5f66yV+At0NtKl8SHsU4CmNDIWcehd4SAREQAREQgWkEctH+8GePcvFMWOA7xosqXjMbJpjPqzIucyWKueYaogh6+Wczu3yb9Iel/5KyiCz4HDM7oS9o4JxASL5sJQQaAKaPRUAEREAENkPg2kFBoawYEHg5fDtrjjPzsZHtsKq/d7O8jlGcV45Lnt/Ndyico9Af0OYNKGkD0RCJLojHxJCwouHLnDs2wlD9+lwEREAEREAEDkWAPeroSvdWMzuMu5KIdjHBDgqNJfEaIXcAM+7XZmIMeAU59vzjQdHGcnLbGbH9rAqQCjj678ey0muCAQ15PbwxtMvnJoj167UIiIAIiIAILE6AvegvBuWE7/vR2ppRhg/sWJonpC376SXCvjlJg3IZBZMiHXsk2uDjXFIg9upzZbEPn/pV0mb6hgU/HgG58vx7rIoQL+AIHQW/KJRxyY7r9LYIiIAIiIAILE6A2fibg2IimE9yfSOW/SfC50npEf62xJIdn32UXwyHm8oZe0SZs0pxrYx7Yper4OcmEL20mX26g4XvAx4LOduAaF/BKohEBERABERABLZCgMA+Xnnh/sfeNIr9TpnEOunaV4btgdh47kfBvSuUn+6fcsReAJsDXAS75OCOepmhTxH69R9mFg36Yn9IfsSWiZeYU2GJWAm+Pp2LgAiIgAiIQJbADYKSJHQvaX+xTn9n+MwrOGbduAvmhPfZO/98z/2+rNJzIgu+rin36gMDj9QmvAlyZaO85xCMIR86YMNAHoQLuMriAICVC4kIiIAIiIAIbJQABmgo1aQksWbHte/GZkb63PR+PL7bzFB+UY7d7u+ngEDxvrGviZlPTIBjxAoHXncNALqCGQ0U1/kxs/w+Q0Ei/p2jvfthgev+naXqAxEQAREQARFYgAAhdX/mlNF/t7N2Zth9ivrDmUh4+5nZM8zsjwP39pUbP8OA72lOcY5BQLrdWO73xhRUcA+rHk/O1JfqZzsAd8dHh2sOKChbl4iACIiACIjALASI2e8z/KH8UeBDM3eM347uWsD++zPNjIA4SdFNOWJBT7hdluhzKwyu6qJTXAxje4hauKSw9cFKSqyX1x9qBzX+szmiJi7ZH5UtAiIgAiKwRwgcsXFpI6GPV0I/Ca/9Z+kcl0CW+BHsAzCkm0vx43HAXvop2vLnOuTc9tjeWFrOFFIiJ4Yc4yrJbZdujMoXAREQAREQAXz531Sg7L3C4hxrd5Q+Pvz42bNiEK+pfY373ttagz7atYTkAhYl18Yl6vNlMpgpiXUwJXSyr0/nIiACIiACIpAlQDCbZ49Q3N9vvAEu2IYDjrPXWqXvr79ZtpXzvklgIF8nA5lNCoONb4U2+PZwTqphiQiIgAiIgAgsRuARA4ooKiZeM0t/e2bZOndt7Xss+9dE46sF8y+ZLILPry1khusJr9znUXH7GepQESIgAiIgAiKQJXCfEcq/VqEPXR/TC3M9BoRLCa5+sU03XKqygXKvlBmMpLbdZuBefSwCIiACIiACowgww0zKZltHXAfJlIcrnG8DVv8XGdWr4ZuIse/r4vwkw7ctdsWzMu2hTbdYrEYVLAIiIAIisM8SuEnPzDMqx6mviXiXK4NthLO3T+CWmWu+OpPLX3zIKFbfHvbityFsAbyi5zlswithG/1WnSIgAiIgAlsicJ12D98rwSXOcbUjnO39g8JNdRFfIAnW/ij89Fk6PjddMOPxUaGe58xYdklReE1Q519CO1Kf05FQzBIREAEREAERmIXANRfIupcUFkfyBRAH4IxtazG4+0FG0ZFU6N9Cj66WuY4yWa2YU8hV4Ns8V/z/oTYSK+HxIcSyb0c8v95QgfpcBERABERABEoIMBufO+VuUlrM3u9gZkcNDSH6XbrGH7tc/XIheoktcOZQ7pSX0d4gl5p3SvnxXpg8sMme2LUVAhdsHmLwJCUDiiT1WgREQAREoJoAy/5DS85eQZecs4dPfoBLtemBc436ZGYA8I4mMRCxB3JCKGKfhyC14+szuQYyC09lcqTcpeSwrS9/jDng60fxE5b4LGaGQaT/jBURiQiIgAiIgAiMJnDdmZU/CvrhZkainz65WFBoKDe2CIYi7jHz9YownZML4HB9FRZ8dolQ9hLuhv+nTZ707VBX6kc6vt7Mzuba/L5w/eXcZzoVAREQAREQgSoC7CPPNfMnTwD+8qVKGIWdlF06HljY+v/K3EsZbBH838IycpfdKZQ79z47A4xPhTpS39PxjR2ZDFkZSddwJCWzRAREQAREQASqCZBPfqryJ8TvQWZGXvsawYffKzPOP9CzVRDLPoKZ5bYPKAfvga4thFhOfE1ffLtIwzuHYKMQjQt9PZy/pfl37p7K3hzalgwpe27RRyIgAiIgAiJwSAJYtk9R/sTGv0eTx/5Yhyy2+NW7gzJj6f9UxXf/7ULc5bqyET565CDgM65dX6lsT+5y2kgYYewhosJPr1Hs583dHN6LA4BtBicKTdNLERABERCBXSCA/3ifQkqKKR4xSDvYzK48cZn9whlleKuR4C7Q4zaHuyH77aWCS6K3tH9a6Y2Z68hVQA6FruyHsMRA8pyZe7vegr1/JsfoulDvi4AIiIAIiEAkwB59rfL/tZk9wcyITDdVWJr/UFBkbxg5W09tuUqP++KLzKw0ZTCW9l7Bjtn/x7IfOwLiGPiy0jmKn+h+Y9wW3xXKLO1X4qSjCIiACIjAPkrggErl//lmiZ0QvEeakVe04GcJH9e7qXLtni2NtzUBdo5eUAF8kqLmeIqCe9IlrDQwYOhK4cugC8PF06UbRhy9F8AfRtyvW0RABERABPZBAsSNr5n5v2YBRv/auL99IyjZK8xYT59dA4GITjNQ15Nc2/DNLzUkvHiPQSKBlbABqLVvyDXVew+QElkiAiIgAiIgAr0ECJUblT9Gdyy9+xmvPycN7dxyx1DfU+euoHGxo930zfclnbOVQajjLsELIV2Lwd2QnKm13E/3+CO2BMQQGIppMFSH/9zHDfiy/0DnIiACIiACIhAJ3DSTTY49aKzTUYZeaaXz/zGzI8aCJr7GW8Dvi6PAcOVbQnBJ7PIOoI/MyEkx7IXYAX7gcD//YTjH+h53wTioomzcIp/c8g23TX75W/e8GKxIREAEREAERCBLgDj7XkmhdMl1n6QrDv9H0wUzHslulwYYzI5Tmt8ZqzhEUcy8P+3qTHWnI3v1fvuB7YH0GcfLHqK0v70gDPETO7wO2JN/XBOD4HiZ++Z4C4M/375XzVGoyhABERABEdh7BK7ujOJIMnN3M8PNzQt2AV6ppHOM1eaU84RViHvNWXhPWUQkfHZHH1NfibOP8seAL73H0WciJFnPgzuS9TArx91vDkPGnq78Nd6Cb99T+i7WZyIgAiIgAvsmAWLEJ392wsqy3J+TGwWllxTMA3IXj3yPpXUfsQ9L9imhesc0g7gHv+noK31mlcRb76cEQIdvlvTvFrYuEiMUP4OCY45p0Ih7Thnaf58RZegWERABERCBPUyABDsEn2EPnCQ/fRJd8pJyY2VgLrmtU1wY4W0ret2Jm9j5b3dtSX3NHV/euj/+IHM9qykP26DiT8+BEMG+rV3pktP1OoqACIiACOxDBM7XLlNj5FYyM718UCpJwTBjnkNYefCGa7jpbVNw67t5x4w+9Z2jt5tI72Mg+MgJoY+n9hubhNQWjlecWqDuFwEREAER2BsEMKrD6M0b+Q31LBeSF+VCQJypgrIluU1SWi+ZWuCM9+ORgFEiUflS+7qOGPc9xswwANym4M3h21ibfGmbbVfdIiACIiACCxE4fRO0Bre1Wtc9Qvt6pZLOUTZThZDDqbzvFkbim1pn6f0MAB7bYc2f2owr5OPN7N9LC134OuwyUts4sqUhEQEREAER2IcJEF1vbJQ5Qvx6pZLO7zmR53HdMjvL6RedWN5ct2PN/8CwLZH6HI+0m73+tcTbf254VuQckIiACIiACIjAaAIY5kXlhw3BFCHLXSqTffNtCwGH7mpmhPdN7fLHPg+BDzeBg/bbdgeCAeOPV9AeNUEEREAERGDHCXgXvaQUydY3VvxeNbHrWaHYlrDCgRtfLiogM3xcJLGZYMUj9T25T6bXHBkkjckMOGe/v+LaOOX5zNkmlSUCIiACIrDDBJ7nFEtSesyIxyx9E30vWf3jijgl890UpEdr+oSffG7GT99Ibewz/REaOfWdfAV3aUP6pvfSEaPGk01p2Mh7MajEGDG1gxTHEhEQAREQgX2IQGl2uhokd3CKJSkYjheqKaQN7vN+V9btKu+f43KM+x7Uzth9Xzj/XhPr/86NRf9RQkUwJbNeuv6s7ecMXj7u3k+fM7C594ZXNohKmOrniB2DRAREQAREYB8ggJIi3/wSgoGeVy7p/OGVlRHeN93LTHmJwUpXk/BmeHobACm1IR0/a2bEH4hhkFNZZ3Tt/mWjXA+TPmhXQe7roiqmMjkSLXD/DUU1PItrI3UTwVEiAiIgAiKwxwmgkJYMnYuBHC5vXrlx/qUKJX5Bl3fgpxt0nSOOAQaHOX/+d5jZZQr6gHFg6ntXDoQzNLYCH3TXpes5fqH5d40FB2h8vQn64+usXZ3Z438i6p4IiIAI7D0CJ9zQUvN7goJJyuZSBUhZdv++u/9qBfdMuQSjQgzycsvzfzEzAg6draKCj7m2X6fnPlZgbmlmv3LXJ04cP9MGUCIB0dxy61BnV26HuetVeSIgAiIgAhsmwKz/Io0f+hLKJNcV9rS9MkvnzKL7BKXoo/0RQ38pIYfAQzss+gnTS5reWnc9DAFTXzGyi/YBub4QGOil7r50fzr+rI0fMKeSJh5BKp/VmiVXhHJ91nsiIAIiIAIbIIDSv3bYi166WsIIJwUTj+ftqdy7z6H45k6JywCDzIZv6IjPj3sf1v4leQ9y3fDR9V6Qu6DnPbYfcHOMvNJrViNIPnSTxuvgGD3llHyE1X8qF3dAiQiIgAiIwB4jQKQ6rPK9Idqmuuj9zJOy4YgtQG4lwu/7c92cfvLM9lmV+KZTfL5NXzOzW3S0q5QXjP3WxZhohczEiXuQizPg20tsAWIOkGVxTAjf9zoOry3toK4TAREQARHYDQIkmyFq3rYC52Dt7pWWPyduvpe47/96/+HIc5bfSUL07g6jPtpDVD5sDOZYAr+K6y8DjSleFrSdZXq2Ijy3rvOvNqslT2n7gp3HkHzLlfvgoYv1uQiIgAiIwO4QYMbLvnJtMp85e3jyHsVL1LzrtpXFfX8C/xx/ZENwzcNSnyVuH+jGK07qfo2ZseIwp3zAKVUGP3MIORCwRch5Vfg+xXM8J7ClwMYBQ8RzmxllIQx2fHTC9Bzaj3UQAREQARHYVQKnbV3JiKK3bfEx/KOSQgndoHH38/7+XIMbXY3gdnjVJqIee+743cd60utfmNkjzIzB0dziYx8wwBizLN/XJsoj3fCfe/qX+tl3JOjQl0MZxC2QiIAIiIAI7DgBZt0/aFzIWI5eg5w/KJuonPC3R2Gm91FOXQF2fH+IZEcwnlf3zPRTmbjTsa9+eF/AzOd4N6T6aNNSwkCAlMK/c/WlesccGVAoC+BST0vlioAIiMCGCLD3++12yXhDVRZV45fGh5RUV5wArF0M0GkAACAASURBVPIZ1KD8iMSXC9Tjy2b5nxWBTQS4wavB132eIirTLoIH3gpDxoK+XbnzL05rhu4WAREQARHYNgGS1fBjTgz6Et/zTbaXVYAhhY1ySjNnlvRxI2TW/uQ2IE7J/ZRBMB+C6+D9sCnBGj8pVwwONykYeOLi+c5Cxqmd6bhknIVNclBdIiACIrBPEiDLHv7h/Khff6UEXuiUZFI+8Yjb4I8Krov3YfDGysCZttB3jOt8ezBA3JYQhAijP3IK+Db1nc9lrLitPqteERABEdinCTyt/cFnqX2TCXNqoGPVjwFanzKq+Qw7B1YHML6bw4Wvpi/pWlh/yPXp0yvij2Efyp0VkT7DwaunzugoAiIgAiKwWwQwhEuK8worazpeCEStIyHOj107U3trj/iuEz+ALYUpPvZzYSJQke/DWt3p2FLB5fFNob20vTbU8VzsVI4IiIAIiMAEArj7pUAxRLLbtlIk8BBK8Fk9Efe8whw6/24by4AIfXg3rEnwKKB9qQ+f3+JKRB8XbCEObKMvpramI1sna10x6uuTPhMBERCBfZoAYWd99rrbb4EGyuVK7f47CjAplqlHouiNDQS0KQwsr/t+wmFNQvZCBmJpgOjbms4xXpSIgAiIgAjsGAEfPIckMUffQPuZ9V68NTT7SBPAh3qTMpn7eKMN9GdsFScIivX9Ywua+T6MQa/VhjcueR73m7l+FScCIiACIrAwAfbWvUHdUgqIVQZ83P+z8ad/l5n9cYTC/7mZEde/L8tdTlmRCZBgP2sUkuf4NmOTsE1hJeYuZvad0C7fxtw5WRElIiACIiACO0QAf3n/g46CnkOwIcCVjuyBpMslJr+vZ+gcX/0vtEvPzOBP3e4xM5Dw++VD5aTPD5qjUzOXQVz91D6O28ykd7ImLfATCp8THgpvDm2fO9XyzKhVnAiIgAiIgCeQC61L0Jyxgu/4zVtjO4zCvHIbOiccLQFoHmRml+3ZhrhyR7msCpCNr6+e/cd2bIH7yFjoGbEFcroF6hkqkkiDrwohlHMMSSCEB8b52gLJFpiuw6NCIgIiIAIisEME3uZ+xPkxRwmVxM5PXWTWh+83sQMwtksKoeSI7z3JfUjWg1IpTTN8cEc9BM0hfDHL/V31s9Vx5tT4LR9fEtpJlr5NCdb6F2v5d7FK7/OcCAgUDSl9SGYyRUpEQAREQAR2hMBZgwLiB5+ob32CcSCZ8p7UhgpOSmLoSKY+Zuf43V8jo0z66vSfnbIjRO173UXsRfeF+iVB0JHd9ds4xcrfMyNi4SbCDTO4I2Pi50L9vi2cw4+BFvkS2HKJwgDi166MO8cL9FoEREAERGC9BJ7hfsCTAiDnuxeCvpBQh7S3uAn6THvpntyRpW32s+9mZhcws8P5Qiecs0edqy8azt2z47p0L/vXNSsdE5p8qFsxRmRWndrCcemQy0dqbTGGbCd+1bphnupQrT7kG6RA9u0nhLFEBERABERgBwig2HNGeQwKUKb4pTOrZubuf+hz5wwKmFE+vZ1dMktfQo4XvBVSWzAwzMmzB9r+4i0EO2LmjBdDajtHEv4sFUCHLRpsKn4R6vT1c45R383M7Ig5kJn32PZJZWC7gcugRAREQAREYAcIXNH9gKcf8tIjAweWh+/fLOtfekNL1yDNzf6xWThDB2+UUrRxiH3EkG2TcrvAnQHWEoZ/WPQ/tWPAlBgko764elLC41GuHzCWiIAIiIAI7AiB3PJ/Ugzx+A0ze0FjsX6r1q1vG8lyMEDLxQ0ggU+fsNLxPqesYt94jT3DJsIeY3wY+/DwvsaP+AwPjpcNbNWwDUDgJ0ItjxXPlLIkIiACIiACO0Lgix1KkVkh1t3M8DAAO+5K+oOSjsqbZe1jFrQPgz8iDcb7/Wu2A5a0CWBpHeNDX+eXZrKNYPvgki6Fs68jnQ8Z9RVg/PslcPKBo8asIPy9MJ2IgAiIgAhsjgDW5l1W8riGrU1Yzo4zZxTbbSoaerSCGAFvbQY+GMstIc8Lyp+ti3NNrAjrfAIJ9UVFLDXqq2nKOV1fGAiUum/W1KFrRUAEREAEFiBAYpc0M4xHZv1rk2g0R5tJFlRreMZ2AF4Osc/+NbPy08wMgIGKr4PzB0+oA4WL18BXMuWmeugH9galRn01zfF5IwjcJBEBERABEdgRAij5pCji8YYr68MVMm1l9eJCI9t52DbqXey3f82smXrnENoZPSk+O3LWzHYH3hk+eqBvN9s3bGUsvSSP10KqVwmA5viWqAwREAER2BAB4uqnH/B43EYa4K5uEzuAwESxjc/suqHwfYwYH58p19fDIINZeu0qg2/CiczsJ6EeBgNn8RcVnONzjwdEVyre7zVbOvfekL0GWyQMNBKrCxe0X5eIgAiIgAishMAt3Q94+iFPR1z71iL3ybSTiHlzpSrGq+HPmToSC46faKzqTzsCCKmOP5kpuyZiHomUXtTTxnc08Reu1hGpb0STi24hymLig/+/9v+LsOkiERABEVgHAZb50494PJLsZQ2Cb3zO8I/89HMKUQ5/2cMDPhi6kdGw1P0Rq/wY559yXlMY8OcimUx76Tn9pnVbnNtOoZSpXzkhj4NEBERABERghwh0ZdNDyXxmBf3AzSw3e+6K+De1yScdsKRPyvejTfIc8icMySMzAwpiKeCJ0CUMLsiRQB2pPn/E6JEVi6W8FLraFd/37qO0RyICIiACIrBDBNiD9srFn7O/m0v+ssnuEbrWt4lzZuknWLARGAdiWxDrja8Je/z8nm0IlGK8h5UMPC9ygkLHWj+XSZG6mGXjmrlUqOBcm7reIxiT7xsDJ4kIiIAIiMAOEcA1rCsOAD/wp95iX/CNx0feKxrOr7uhNt24I0dCbM+PzewWYbB07Y4IfDfPtH0/M3tMs7XAkn4s+4dtmGVyH6xJDnBt/eqaGqa2iIAIiIAIlBNgqT8qnvT6puXFzHols+Gcb/umc80TeOiDPXwSJ44siZNX4aLBOj5dQ0RFL+czs1d0DHLeY2bYOCwZkdC3pfacdqd+4ZUgEQEREAER2EEC3pgr/ainI8ZqmxaWuIlhn9qQjsyGS8L9zt1etkFwrRvyEkjtzK1aMHAhxwArLmTay0Xsw5L+aT0Jjebu19jyCKLk3RAvO7Yg3ScCIiACIrBdAliaJ+UVj/zQsye+SblTpj1sU1xmk43I1HWOTAz/yCv3mlTK2FowU/51pm8pUt9RMnWu8S2f/hevCAYEEhEQAREQgR0kgNX59zOKKSmzTSpeouXlZtqPXglXlB1pg/vsJhK3dMxtsbBK8Cozu/hKjPpq8Hq3RnImSERABERABHaYwH/2DAA2FQ8AQzeC+yTFmY5k71vbXvjDMu1M7e07ovgfYmYn3NHvChEZf+v6fusd7YeaLQIiIAIi0BI4lpmxB51TXrgDTskXXwKZmXXO7x2XP8LfrkFYokfhfa6DU45d7j2SEC3NcylePm4EqyC4A0pEQAREQAR2nADx7nMKi/eiBfucXWUL4rUddRPedtvC/v3TewZIiVlXYp70uT+y0oGr4K7JC91zYmVGIgIiIAIisAcIHLVjCR7F9YcFZ3tPckrFK8nHbZEpkfrIk5BblfBtJGgPA6fTN3v5ZMPzn5WcE8P/DFvsZ03VxPr3Rox3r7lZ14qACIiACKybwHV6lBjGX3MLCXFyihI/+CnZ98a0k5WIS5oZNg9Yt+faxXtk9XuimZ03GPDl4gWUGAsS5Q+3RwYRa5bLBybbDBK1Zk5qmwiIgAjsLIGcD35ShgS6mUu6ouWR0naTe+Rk+GMW/92g4FKfORKlj7C/lw4R/xILshLm/P8JpETUvO/0lJ3qYbCAVT2MGYysTchGmNpK0COJCIiACIjAHiNAFD5809OPvT/+bKY4/BiT5dz9iJVPCOCl5cRNhsG7mdmnO/pJn2nLq5sIf9c0M6zf+4RrPCfOv+VWMYilcPsmiU+pnQBumQRoOn8bQKiv7k18RgAjbySKJ4NEBERABERgDxJgVux/8L1yIzvflEx0RI7Ds8CXmc6XDD183NaK//09fvwofZLu3GAgY1985Fj2pz6kI/kBosDtngNxF9L96ZgGAxfoWH2IdSzx+nqhfwRFkoiACIiACOxRAsSi79rDfpuZHX5Ev8lm17W/zox3bsHf/sAmPj/R+NhrT0rVH4l2SGx77B+OPKIBp8hwQmn3RVDEvoFVg/d1tMm3z5/jg/+mdvXi3BscEFBnagdbJWvISDjiUekWERABERCBUgLMYrsGAe9sstjVhK+9YIghnxQKxzfOuO99ymaQcdcmdDBual1tZ08fYz/cDMcMZDw/Mvn5vnBes5Jx5sbm4anN6gTbK7GcodcMCLAbwIaBEL2k5Z1bORMjwm/X0F+JCIiACIjAPkCAGXSXIsIYjBnwkFyiR/l/duTMO9XJTPtS7Z7513ra+osmqNDzzOwKA7PzVG7Jkb1xghV5Pp8fOTNnVYCwyxgbenc7X3bJ+a/MjMEZipqUxqwU4OI5Vm4T+qfl/7EkdZ8IiIAI7CABDOa6lA+zUBRNl2Dwx9567n4C4pyo68ae97nn5u1+vc9MF+vA+p7ZNQOEJcIJ3zfTr8v1tLv0IwY1DFTIO0CsgdivMa/xrmDrhvgKZCRkRaYku6J3b/xqaQd0nQiIgAiIwN4hcKuwFByVEMrlNKG7+/fcg+I+Z7i+6yUpeVFYxOBnxSDWnV7jioeR3z2aZDtn7CpspvdxVfRx8WkDgX2WkFO1XgTsxU9ZHUic/JGtB+IukIqY1R5Wa1KugpOFbZT7L9E5lSkCIiACIrB+Asyk+xQQe8XPMjMUB5H0ugzvuG5opkwZN2kGFS/NLLN7BfbDZu/7IDPDUr1kRjsXZVYWfDvwbIgDoLnq8uUQIwC7gdu2bPoyOfr21Z4zuInxCxT8xz8JnYuACIjAPkbgdK2Pe59CyQXF8dfntgxILHN9M3uumX07KFd/LysHzITv0IbRndvoreRx4ibpDeNo34NKblzoGthdqW0DRoHRLsHzG3uO+6dEBERABERgHydw7Nb6fIwyuU/LDuvya7R79F/uUfjEIzi4+Zz7Ltyk0yUm/TaFGfgHQnsxPhwKFrTpNpNF8SpNICGW7Um2FGfztc/uLpvugOoTAREQARFYJ4H/01j2E8u/K6hPTsEQYRAjtM+EvWV/LbH2icDHDB8bAfb/1yS0y7cXV8OLr6mBPW05RhN7gFgMd2q2aV7QxCLAi8P3peucPia7gJ7i9ZEIiIAIiMC+ROCsTWrbvhl8l1LhfVzWCIbDoIDlf5bWt7GkX/q89stESCSb4a4JAY+IVfCFwgHAu3etg2qvCIiACIjAZgjgD48i7DL6yw0CnrCSOPelhFiJIKKg7wtucUcoLWAF12GkiGth9F7wfcqd1wQ2WkE31QQREAEREIFNEyCRz6eCkswplPQee/sYsO2CPDT0C0NHUgKvXbBZwEAQ1l2REXkeREfE4yI9m3TE6LIm4uPaeah9IiACIiACCxFgpoxtQFcyoaRY0pEIfeQdWLOQojcqz/utucFthMahNMcMYkhkhAslIZEJjZyeSzpiKyARAREQAREQgWICROt7cUZxJsUSj2ThI03v2oR4BNGt7u0z5i6Ys7/s7RM7YSjJ0OfMDKv+44XKyY8Qn8tFwjV6KQIiIAIiIAJFBM7eRsiLiiX3muVmEvkQF38NQvreTwelSOAhogCuRVjixwuBYEjwy3HlPbwrMLbEaDMnhB9mG8DfTxhivD0kIiACIiACIjCaAIlu+sL4esVDQp3Lj65pnhsZhLw5KESC/xCLYNuC0sedj/C9KHbPzp+Tg+HlbV6BoUEVuQf8vZyT60AiAiIgAiIgApMJoLiuUzEQwP0Mw8JtCCGNo0K8/TYa0taJbQUzfZT+TzNtS21lX59sgCRLOlpFe8mUmMrgiEfHGrdkKrqkS0VABERABNZGAF9/LNM/GpSOV0DpHOO7V/YsXS/RN6IOpvrTEQW5aWFP/6pNEJ5nDyh9lPW7mmtI2DRme4JMiRhjpr5yxM5BIgIiIAIiIAKLESDBEDN9r3y6zlmSJyvgkoISjRb/HzYz9sg3ISdvM//httcXZXGq0vd9uWyGP54BEhEQAREQARFYnAAZ7p7TGAH+d0YZxQEBOepRUHPnBbhZRvkTQz9ay88JgyBK2Ec8uiCiIkqfwdKtm62A487YiOcH5ng94BYoEQEREAEREIGNEfi3JtPePc3se0EpxUEArzGAe8hMe9U3ykQyZFmc8MRzCsvtF2gKxMCOyIJ/GujnUko/9YkkRjHFM94CEhEQAREQARHYCgGs1glMQ+rfofTCLNkzMz5gZNS6G2aUPysRKOqpgsI/T+t3zxZGSYAk3PFe0fZnzJ5+TZvJGOgHV7A8dU0BulYEREAEREAEliJwgkZB/6eZfT0oK6+40jmK+2VtdEGM6IYEy/6458+s++pDN3Z8ftR2Sf9BZvaewi0N2k5egce2lv4MGjYlMfwvHgQSERABERABEVgVAbwHiEzHnnUMWpMGAP6IH/wb28x3uXS2KGl/fTo/sLDXuDWyRcAKAkl2SHPM4CGV03dk6R9Le9ILn6KwvrkvI9BRDB50zbkrUXkiIAIiIAIiMCcB9q7ZIiDQzR8Kle4XzezxZna5xl3uqR33PLKnkQwicMt7eOtrXzII8YOAH7WGjrS7ZHWipymzfHSLwIAoh5tcfZilEypEBERABERg3yXATHZ/M3u9mTHr90q35pxY+IS+5R/ueNdojQzZu//xiHIZmLytadPdzIyQyGsLqxsjMz5w3/0KqeciIAIiIAK7ToDBAIr7hZkkPn2DAYzzWBXAMr92Zp/KxVjxQ00uA7YW2KrYVOyAMc8MA8fUbo60nQROEhEQAREQARHYeQJ4EhAz/wlm9q2g8LzyG3tOoB4y7+GKiC//Gpb1Sx/aSwKP15beqOtEQAREQAREYNcInKpZFbhdaxgYjd9KBwEp9sCFzAw7hF0UggjF+AMMYCQiIAIiIAIisOcJsDxPch2M/j5VYb3PQAHl+ckmQuAzzIzogWfbMeO5+4fZPy6Ia7NP2PNfQHVQBERABERgHQSwHWC74KGNl8DHKgcEDApIFUwaY1wUWWU43wKhiucgRZwCQv36FY/bzFGwyhABERABERCBvUDg6M0s/4qtyx+GgaWuhl6xEpToE2aGdwGBjAgudPotDwyw9Pdt/JWZMfjxgi0DbY3/TmNmZ2rdKP315GTgWsI4S0RABERABERgTxHAoBBXPmbLeBh8IyhSr1SHzrG4Z9n9NY0dwcPaQELnbGIUMOhYUv7dzH4b2v2oTIXHaldCWA3B/RHvCM4vambkCYgeA1dooynOETo50xy9JQIiIAIiIALrInCUdqmfJX+W/tkCKI0E2DVIII4BIY/xLiBMLwr3ru0Mm22F/Sbs178gKH8UOeX1CbYO/hraQ7jgO7mbXmRmpEzWAMBB0akIiIAIiMC+RYA99gub2W2blL1PawwN329mLLN3Kfwx77O18DUz+0Ab/IjBB3kE2Ga4VbM6cf12wIBNw3mblQZSLV8+k/OAhENDkhsAUAf9QkgbTLhlBisaALRQdBABERABERCBRIAwwpduYu/fufUeeFfjQUDo3TEDgLnuKVHYuQEA+QLeamYnbZMuEVJYA4D0pHUUAREQgQ4C+I6TQOaSTdS4S5nZuTaw99vRFL29AgIY3J3VzK7dzNDv3eYKeEe7DRB99edS/JTz8cK+dw0AbtwOZlD82AxoAFAIVJftNgFchOK/OaJovThT7nU7UL3SXfuIjmv09roIYESGwVVXAJpcGFYlZlnXM9x0a8g2SCpk9v6v1xjw3dHMHtNkD2TPnVTDX2724glhPGZgwDZBiXQNADBY5HfwVW0hGgCU0NQ1O0+g64/tdBN6hpFNzElOPaQKzQl/+KkdDAYk6yZAGlsGiemZxSOx57kmCasE921mVk9Ob+goAj0E2IdnoHDGNgcBuRBYlr97a73/xHZlASXN0v1bKgIXkWCJspOwSnHZ9gW2B9dqz6njHOkiHUVgrxKIP97pNdG1xgp/qKkcf9QAYCzRdd1H+lf/XNP5r1ur8Q+65pKqFitwrnm2e1+nIiACIiACWyaQfrzjkVzjY+XTHQpCA4CxRNd1H37j/vvCMi7W4shhmmVd3MmSfM9dWzMAYPb14CbQDJbd+JdjFU6oW7+ykOrQUQREQAREYAQB/0Me04YS5atWiK6VyozbAF0DgPO0YUtx8zlDbYW6fuMEPuKe8bfNjL3dLqkdADCQQOmzFURAFmwJjt8GbSFW/buV5rULtd4XAREQgToCSVlzZF+XZdz03phtgPu5+/HrTWVx7BoA1LVYV2+bAKtD6bm+eaAxNQMALMgJwHLVZl/33GZ2UzO7SWOcxTbCsdt6eJ8VppyR4UBT9LEIiIAIiIAnkH7IOWJUgyFMem/MNoA36CN4SCqLowYAnvzunhO0JT1X4sL3Sc0AgO8e1uEIHgY/aFcCGBQQLCZZerNihNW4tgNaWDqIgAiIwBgC6YecIwMAZlv+vZol+bO4e7/SWOjyQ+3LmnsAwNIz2xTMGK/TJjvhdd+S9BCjk5jZVdol5zTrHLqHpCEXMTMCimAgR0CSYwzdNPA5nhRYJ+NPfSUzO/8MZbI/z946S+uUSyCXU49QpH4AgAtXn5QOAAjCglJPwgDgdelFm8SG7YYk2BNcIr3QUQREQAREoJ6AV9AMAPDV/oVT3A+oKPLh7j62D0oHAAe3luJYiz+loD6Wf3HT+amrz/eD9j+6ueaYPWUR+pP6+IfCJn/4E9rEIKks4qDDxMcOT0XiB3+DNgBJtHXgfuKSYw2PW1HpTBXjObh9p6NftAdf5VtWuD3RXgZxBzUrMNHGI/WTmTaGfH0Dni85Xj6gC8lYEkeOz2rDt6b3SCub6qH+9D7HkyeYZnbrNjFNeisOAPAsYeCRhMBDj08vdBQBERABEagnkH6cOaLsEH7E0/v88JcISu5b7j5mlqUDAL9tMBQHAEVRmsr0J+3MOdf+77q2EsEOZZL6HI+nDAXwmshj8bqu1ww2jhPKiC+Jptel+HPl8lyG9sGZ8ZMulcFIroz4Hso8+UHH9v1PYRlvaOq7V+G19DkJAaB4DkkYAKDwydpG9jYGKZdJH5oZKzVzBKxyRepUBERABPYtAl4JpAEAsyv/fsk2gFf2n2oR+vcor2sLoHQAcI/QLspEMZAVjBnsy8zsR+EaIovlvBn8AAB3s9wsnvK9TzvdOkVm5QEFS0YxFNXT28xnMYsay9fET88JM38+98zZQnl5OzChXIzt4sCHa7qi6zEgY9bvy+T8m+37rHbA6+fhGjiQDS7K0isAD2m3n1K9aQBAOzFMJRiMF1YPhgaL/nqdi4AIiIAIBAJeQaQBADNHv7zOLHJI/AyadJ/InAOAC4XUpBiFER0s7vcfwcweGZQas/W4DO8HAGlJG2VIxLorthboRBm7+d+68tf/sVKPedOJLJZT7AwUSJDi+eI+96+uvHR6H3cdAwcs33PCEj2rCb5MLOVzQoQzfx3P8+qZCxlA8LwSA+5hQEOu9C5Zwgbghm2kt1Sn3wLgGTAIOF76sLX7YNAgEQEREAERGEnAK4k0AKAoZp3pM2bofYISTpnAmEGeuL14zgHAR117UJJ+uTjXNt9++sGqhhc/AOBz2o8hWhQ/cCA9aWLCEQO4OADx96NcSS3q78nNrlkxSdcQZKdPMDj0NhqUH+W4YbWA69mS6RMMDf2qBasLXX1bYgDA4OYTrk4/AMA+gzqx+0jCwOvs6YWOIiACIiAC9QSS4uHoBwBYtfvPiMvdJf7alFeba+caAPBD79tSYihI8Biv0BgQeIkDAHKC98lhm6XxX7p2sF9/pL4b2s9Q2H6ZnftYYfHiPy8xunxSqyxZwmdQEsUbY8Jt/3hBx2vK9ZzxaMjJEgMA6nlQm0GOcz8A4DUDJ1Z9GNzgweC/q7k26j0REAEREIEBAv4H3/+o+lk91/RtA7Dvncq5jatvrgEAdafyOZYmKkKJsIeM1fw5Xbs4jQOAISM9P8ihDVillwoGbr79pMz1wv56+pwBwr/7D0ecf9aVRz+7ZvKxaFZu/KCpazViqQEAAyMM+9iGYbvliK6B9IGMbWz7EGCKzyUiIAIiIAITCCTFw9EPACiSJdf0edc2AO5waQbL3rFXpHMNAHATTO1gqX4O8QMAXNKGBPe81AaOpYMQysWH3997l1AZWfL85/DE+p374mpBuPVQL8ll7g0an3aoK/rfIF1qags+/DlZagBAXfQX1myLYMeAPcbl29SxKH5WcrDzkIiACIiACEwkkH7sOcYBQFRcZ8rURbCaVMbbwudzDQC+4OrAMG8O8QMABhhDgqdB6ifW+KWzasplJpvu5RiVMrYHPgSzv5b9+5c0XgIYyfnBVVd7Wenw93sjxq57/PveBZRy2PqIsuQAINVFIKXrNi9YDWBAcEAwAkzX6SgCIiACIjCSgFcWcQCA8ZWP5MYebRQfOvhG4cO5BgA/c0ptKPRsaELnSz8AYC99SN7k2tA1M+4rA3fExBr3vihkuksrKem6eGRmTyCgO/ZsE+Ar7+8jqmGNYFnv789tR2xiAFDTZl0rAiIgAiIwgoD/sY8DAIrDvz5dg2W4l8O5mesfzexo/sOZjAAZhPgl7ZqUsqE5h3jpBwAMYobEJzbq2g7pK4OgRIljznKfe5nhE8Hwx+7adE88wpsBWdwiIJCPvzZ6P/S1kc+ip8PJMjdoAJCBordEQAREYNcIeGWRGwBgsOav8dsAxOBPn7060/G5VgB8AJwlVgBKBgBsPaS+MnioFSzY0/25FQBfHnYVxLnHiPFz7r50vz8+z9+YyeVQuwLwsFCfVgACYL0UAREQgb1CwCuT3AAAP3iix6Xr/DYA16f3cyFk5xoAEO0vXndtogAAIABJREFU1fOWmcDXrgCwD5/aUGsDQKS/dC/H6JI41KUTNFsxN24jA/qBRCqTXAZJzhvquln6oPDIgCKVi0fAtmwACpury0RABERABMYSSD/2HHMDAMr1fuUpN8DhzSzta3PMWWbPNQB4r1NKNfvvBAsiZsCd2yx9Pgpf7QAgegH4OPZD7Ili6DlHL4Ch+/3nJDgiS54vD//9JFO9AD7jyu5a6dAWQKKtowiIgAjsMAGvSLoGAGd1SoHrUX4EiUn3dqWEnWsAEJelfRa5PvTPdG38VZvxL11fOwCI+RHulgoqOLKUn1hx9DN2WN7JzGgr6XCxqxgSVhR8lr1oUxDjCpR6LJBgx8cB6Nqq0ABg6AnpcxEQARHYAQJeMXUNAOjGV50Sw1DML4njp52TuQYAKEzfTgLrDAmK1OczeFW4oXYAwIqHt9In82Fu1SNUY7izeS8G2uQT+ESjvcvFAjpee6PCOADzKzZwu05HGfHtxwXOpDvOSc0AgBgL6dn1fb9y9eg9ERABERCBBQmkH2eOfT/Q7P2naz/vlv/xU/cKzTd1rgEAZRInPtVP4ppz+Ioy52T4S9dzJF6Bl9oBAPd6BpT5nEySIV8HFvpkrPPtiBEVWdLHoj9dQ86DLp6p7Iu567kvbilgM+CT+zDoyOU5SOVxxOjQpw3GE4FBT05qBgA+KuG7c4XpPREQAREQge0QSIqHY98AgJTA/tp0/oyeZs85ALhgUFDE5ccLIQrKkwhy3nWQVL0+qQ/3jBkAHLVNSpP6zpEYArkAPSjhmAiITII+vG1qu9+qoEzuI+Z9Tgj042f/2F+wyhDFZxikTAwpiREQhe0B8iD4QQjX54w60701AwC2NSiPf2xb/EebPZGtj64BRqpHRxEQAREQgQUJpB9njn0DAJrwRfdjnu7rSxs75wCA+klbm+pNR9qEoR+hc5mRfz9cw+uUndBjHDMA4P4zh6RAtAPLfAzz2OvHj5+gQf8T2sEsvCt8MAo8tpv739ymNmZJH1dFggClfnNkkNOVOpj4Cbhm+us5Z/Um8XpuCPSUrvWeHp5ZOq8ZAMRthVQHx0unAnUUAREQARHYPAH/gzw0ACAsq7+eWWWfgdncAwDokAwmKlffJn9OCOGuNLhjBwC04VTNDNkb2vk6c+cfMbNcQB3/tE9pZqwQ5O7PvYcrok+85MtK5zybx4bVkFxZ6T1WE0pCB9cMAOCfc12kTiIaSkRABERABLZEgD389I8ZdJ/wY56u5cjMtE/Yp/fXk5UvJ+x7p+sOyl0Q3tuvmdUze8WyPykvf2Q2Tba+viVmAuykOmv98mkOWw0snfs9bt8GZucfapT69TPR+kJ3/v4So0IMLPsGAqwkEA0RBqVyltYW4fcdvNjvJ+Ij2xYl8nHHrm8LKJXF9+B9mYEIgxOJCIiACIiACFQTIGIekQqv1AbKuXLrohj3+6sLrrzh+GaGm+D1zGz/9vzYlWXEy1HGLJFjwU+OBbwDiMLYt+ISy4ivCerDqgycCCxElMDTTywz1tH3GhuK05gZqx25AEN99+ozERABERABERABERABERABERABERABERABERABERABERABERABERABERABERABERABERABERABERABERABERABERABERABERABERABERABERABERABERABERABERABERABERABERABERABERABERABERABERABERABERABERCBvxMgPO/xzOzsbUjcqzcZ6Ph3jfZIyFzy2RPCl7CwufS4fy9sB08I1XuiJiMgaXvp5+XbfsOAELy8d+72GjL2SUSgjwA5JwgLzd/LpcLfEt+pS7TfKfItkKSqL/9FXz36TAREQASqCKDAiE9/YJtKmAQ7f+pIOOMT5cTzX7ZJdUhfe08zu5CZkRhn7XLMVsGTPvdtTR6Ar1f2n6yGZBV8pZndoR00HWaFnT5cm3yIBER9/xj8ScYT4NmjyO/c5Gh4hZl9ufl7+POIv6efNfkxPtWWQVnnU+6F8Q9Fd4qACBySALORx2dy2EfFPuU1P3xvNbOrmdmaFAtpfe/R/sBO6V/XvWQ4JNvfhc1sLSsEDMi62uvfJ8mPpI4Aiavg+/QmuySZHj3POc8ZbL7GzC67weRPdSR0tQiIwGoJoIyuZWbktp/zh6mkrB9smQozs2s32fk+vOG+f9vMbreCZV0NAOb/AvKdOqAnnXTJ38XYa1gdkIiACIhAEQH2rT+5YeXnf9z+t6iV81/EysOtzeybW+w7HH5kZnfc4kqIBgDzfrdIX83Wj/+Ob/J82wPqeWmqNBEQgUUIHLkx6HuGmf2/Lf5Y8cO4jQHABRuDq89vud9RKXy2NQZb5GH3FKoBQA+cio/+rbWVic910681AKh4aLpUBPZFAljof2UlCnCTAwC8Ep6zgkFPl1KAxSPNbJPGghoATP8FwCvkeyv5e9IAYPrzVAkisGcJYID2m5X8WKEINzUAwI3qCyvqd9cggPffYWbMKDchGgBMo3wVM/vjir5XGgBMe566WwT2LIELmNnvZvyxYvvgtxPL28QA4IorG/T0Kf/02bda3++lv4waAIwnzPdqjGtsesbxyN/C1L9PDQDGP0/dKQJ7lgABbPAhjj86Ja+/39oL3LL1Oz5OCPKDF8HRWj/yM7dBgogfgI0Be+19dgZLDwCuOdLf2nP5bzN7Z+Nv/dDWupuB1Bna/v57ezxj6/KF9feDG04HNz7fvx/JO9X9QzM79cLfSA0AxgE+/YTni+Hpk83spm1QqWMHbxC2gI7Rfq/O0rr33cnMnmtmXx34TmkAMO556i4R2LMEUNAfGvjhSEonHVHML2yV2lSf9WO1ivONZvaX0I4lBwDXzdSX+jd0ZFn3xW2EtsOO/GbgaXDR1u5g7LYLXgLYbCwlGgDUk+X7QCCfoe+Q/5zYF8QDIM4G8QGmyPHNjME4W0VxcK0BwBSyulcE9iABZhr+x2jonNkuM/kl5ITtTDptHSw1ALj0SOXPrP1hZkYkwDkFrwsiIf688lnwrNgOWMomQAOA+qf8n5XP8LVmtlQgpVO0gbtYpeK7ogFA/fPUHSKwZwn8q5mxlDyk9NPnWKET835pQcEScZA91LmFZXOi7qU+lR5fbmbHnbsxobyjjnS/fE+ztUDs+LlFA4A6omx1pcHr0PeKwe3dZ5jxl7SQVQG2CNiuk4iACIjAXwnsX6EICYO7aTnrzBXyAz20Txp/uFmev87M7RgqjkQvtTYZTxwqdMTnGgDUQWMvPn5/ul5jD7JpmfvvadPtV30iIAIzEiDmftcPlH//LSuKTz+l+8yCfL+Gzr/TGvRNqXPsveQeqIkax34vkRvnFA0A6mh+uvD7dVBdsbpaBERABOYlQNa9Eh9lFMtSe5Tz9qi/NPb9hxS+/xxDrqWX/PtbbIaB5Bcr2o0F+ZGGCq34XAOAclgss0ejO/99Suck51nKZqO8tbpSBERgnyaAu1r6Ueo7vm8PUCLK33cL+wsLkvFgkLgGQbFg6Nf3jPxnj56x0RoAlMO8euEzIt2vRAREQAS2SuBmhT9YWKfvutyrsK8oUoy4lnStG8PybIWrNbSfVZ25Bi8aAJQ/rXsXfsduXF6krhQBERCBZQg8qPAH6/rLVL+xUjH8+2VhX1GgpD5eo5Cd0M/0+86fNVMHNAAoB/nMwudzyfIidaUIiIAILEMAN7s+JZI+2/UfrNKBDv0lOuFahQAxHyh8ZgSWOckMHdEAoBziSwqfzZnKi9SVIiACIrAMgacU/mBdY5nqN1IqUdlKg+sQVY/VgjULoV9jtMQ0UItHQg5PFQ0Aygm+svDviXTTEhEQARHYKoGHFP5g3W6rrZxWOf77UTF2vf6PaVVt7G5CEHf1wb/PgGZqcCANAMof67MLn8tat5jKezr+Sr6PpzUzsiSSD4RASOTQeICZ3bXNf3DxmVavxrdyvjsxPmYljvgL2BWRG2Rs6PD5WrX7JZEfg9+mG7Xfm/u33yNi1dyhyTGDQS52U3i67bqQ+4P8Ovzd8D3ab66JamnQklftMMG3F/4o4/K3iQiHc6DkS+AVfd/51SZWqAFAOcBHFD6Xp5YXuSeuROnxW0PMkZoEWAxg8ZggZweKdGnBcBbF0fcPV+IhYZWOoFwkOsv9bbI9934zu1xHQWSR7GtD+mwbyg235FR/3/GkHX0b+za/zbB/mpl9rYNrF+uPtAnYSNC1CblMAaMTDDSE7/utzOwNPZlqieo5FE+EWDK3NbMHtoMlkoj9XVjaz0GL72EVP6dv+d8bsPBJqV82/d01Q8d3Fz67oS/I0CPQAGCI0D8+v03hM8EdlURQe13ObWbkOSjdsoq/O/41aZAfZ2ZDP5xTmDLQ8HXmzr/SUwGxUsjymbsv9x6rHjkh5Hju+vge7d203KegbcTCIAfFHILewQutxoU7cvKvP9quPk1NYNfXt28UMOraVmegw0rYLwrKoF+w7hI832DHisFR2vw9TzIzBph/leMVVkJF90s37dCxNMnRT2ZYKt80ltK+EU54ysqGBgDlT5aZn/+x6Tu/RXmxO3clPzivq2DRxyl+RlIjki1N3drKQZ0yAGApumZ1g351DQBYGYj9zr2G8aaFAVCuLf49ksVNFRQ0A+qfFtTn6y49//CCEV7HDgAIOvfeyv52DQCY9bNiQrhx+vrB1sCd3D/o8rOnB/T1wgoZgZPjfpeErYuSL8Rjd6lTbVuP3uyfElGupH/nm9A/DQDK4THQ+nXhM2HQeeLyonfiSrxUWLbkt6Lkeznlmk8uwG/sAAAbqZIIkLG/XQMA9nxLErTx979Jo+VzFD7XqXlTGECS3Czymvs1ieawQ5lbxgwA2CarTSEOj9wAgMExBv7IHZucMriPI9iOsSXM53/fhnx4BWii4y25BNe2c5YDnSzNyrarCVLI917yRzElkJMGAHVfx+cVPhOe2+fM7BB7cnVVrepqDNteWNH3ku/t0DXMDs81I4UxA4DrjVT+9K1rAECXSu1JWHnYlLAFM/RMWHGcYuR40Yrl76G2lH5OzJQpq6SRf+0AAFuOLnuRoT7kBgBnbvf7aRcDANLX8zuO3UnamnlCajQWqqQlHaoofc7I9Pzp5hUfsQBNbe470h9mLrsopZHncE8bKxoA1JErnSWl7yQ/Fmesq2J1V7O/WBqfIvV7riNpvflbn0NqBwAn7zHQKulf3wDgdIW/XyRp24SwKoFR5lC/HjOhMXhhYSA5VMcSnz9nxmR3tQMABiBj+5QbALC8T5ZfhAEAxresmHnvI2IA/V1K/ZdTI1k6wcBgzYZMNymESnbAXZXSXA5kNBwrGgDUk2Oknf5WSo7sHbPfuaRhUn0vyu7ASGuK8ids9fcmbhv82Mww+J0qtQOA2v3a+F3oGwDQF6zX4z3xNQpzE4mlLlXQFto2NoQ6KylTjEVZDWKAUjOZjSxxJZxDagYAtQnqYptzAwBWFNK2dtoCYOUe7wlWZ5jwPt13lFWAWgMWGkLq078bE/gCV3D+5MIv7A1W0NaxTeDHly9A/FLkXo/9kdAAoP7pYAw4ZibDwGHsD2h9K6ffwaywxuqd7yVJrZgl8r3CjsXL4dv+375ZZcR9t/S7TbkYOU2dkNQMALCkzv2d1bw3NADAnqKkvJt7iAud40001JaxSeNwm6tR/kxAcY/DEBrd5Q1CUW64Kl6+3ecusaVI/WLwUOLmOYS4dADAgL80fXhqYzzmBgC0j+8WK4t8h1LuEewC0HfkAIL5IeQuBQ84Vs5rHhzhcwlUsCYpnZXs+vJraZZAlqbHiAYAY6iZPWrk3xOGXWRz3KRx17gemrGPmPtNyL3HLB3PBwYNpcLkomaWfefSgjuuKx0AoGSw38j1k/f4jNkk1vzYF+F/jkskfvP4Y3+qvXdoAMAAqSRd+xxW9x1I/vo2M8oSe6oxgdRwnWQbp4tlfJ/VarZeSoVBJa6LpYapuBtOdXkvHQD0BaljQv5frRU/3x22hPguXaw16ntR+0y6BgAMhjH0o440QDpq60GDh8ChhD/MN1c8iPhg+IJgbHa4Q5W8nTdK9qv4sU1wttPK6bUyEo7PIvf6qiOr0gBgHDj+DkqWcHPPivcIX411+dRZ7bjWD991zcLvHX15feuHPFxq/goUZRcn/z4/8lO2AkoHABfuaA9LrMw8S2yK0oAg3+N/vPvSjrp8v5m5YkW+lPQpqtQOkq2hbGsEl7RS47fftGxryvfXMtDAiD21t+/4SH/jiPPSAUBuq5BnycC6ZMWWYEFD7vls3TAZYUuAQSnRBDsFYx58BvvgDH3Gft4tt6xYUeqAHGrrFztJ7M4HpVsdLKuOEQ0AxlD72z2sivEdG/oe9n2OUiFI1ZxWyuN79Lc7+XHCjbGv3ekzfszmaHtp1FIs1cdK6QCAmVnqXzricrxEZD6WalMdfcclw7WXTDKIfFgrpUnamJXPsVLLPnhJHIM/tNsItf1J15cMAFDc8XmyEnKJVMi2jgwCavf1Ykd4zdI0ew/bmMHgX51rU3yPfu66lHoC4O45RjQAGEPtH/cwCJiyEpC+s19q/ISvvRJDwVJXR8K2zikls2GWTo85stKSAQDlx/gbrJzWbG3UNI/BEyFf0/eg68iW5xLCfnqJPUutgmYmWlIuEfGYvc8lLKNjQ9DFMb3P4GSslAwAYqQ/vlMYda9C+NLhh1pjhJPAxSMzGFwS5pgFlMIh8E1sR+71LnsAJBalEQEJATlGNAAYQ+2Q92B5O8XVx393P9sYDl25cJn5kK2Y5xX72SWra+xLzz34R7GXbO1l9zgLul8yAPDPgnOWsJk0LSn4ccd642t+q0+0QCMIIhPriq9ZNa6VkiBtDBBIDDW35GbfsU8MusbqrJIBQKzvhnN3co7yiFdcYvwRO5N7/YXWCKZkf2xq2y9b8KWljVP3eqa2c477ieyU4x3fI1PdGNEAYAy1/D1Y35YYdcVnl3v9sZwlb77aWd8t+eFmKZNsbUsIdkY5Hv494r2PkdoBAApqE14bpy7oM/2fagSZY4Z3hWebO09W5rn7c+9h3FkyuRwyksyVXfIeRn4lETvHLsfXDgBYUVutMKos2QPKfTFy7xGQoCsL1lwQMHjL1R3fW+oLNlc/SsrB6Cj2K/eaMJBjRAOAMdS67+HHvMayPfcs/Xu4XvGMNiFsrZXM/knHupQwsIhL8J4H5yiXMUZxtQOAv0dTW6qzrtwPFfydf9xdP8cpmeSGFDXGebWZGp9f0Bf2/ZewqUhcsFmI35v4eoxdA+XXDAAwXCUnz+qFKEIly28RYtdrBhX4cC4hBJXoqte/PyVE7hLtHlMmS2S+T13nY6MBagAw5qn038MqGFs3WE53Pa/a9zFMI5nIklJitPXVDRgAv6aAG78BtVIzAODZbTKMM77+Jd+JGhe5IT4l9kW1dh4wI6HTUF9SJLuhNo79nFWIoTaMNRKvGQDAeGcE32T2kkuMKIbg8jkGNXdf4AeDJamS+ol9sOtywcK+agVgfU8ahc3yX8msuuT7zNI7gT+Wiij4zYLvGtb6S0tJzJJDRDorbFDNAGDs7LCwKYe6DB/uEsVJhNa5pCQ5TW0Y5pIIrZvIzorRJvpn6O+qxB0v8i4dALCFNKb8WN/GX7M0xIxjaHloCG76HEOaM83Yi1LDONKK7rqUrgCMNXjUCsDy3xAM6/CVT38PU494Hcw5E4QAbRxqFxODpfb+/VMoGfSyd10rNQOA89YWPsP1OffD+EwwEp1DSmbInxhR0WsLvkcEwtqElGzFkZyoVkoHAG+sLXht1xPylGQU8Us45jW+l3NltmL5qKQNU1w91vIsSm0AapfqUv80AEgklj+SZCsXHKTkuxyvYTXgKjM2+a4Ff1Ns621CWImM/Y2vMV6uNTguHQCwElJb9hxcLlnQbzj0BnspbAiBYyLT+JrIjjVC4J+SWTd6ZRPCanbsU3w9Jr5C6QBg6W2OTTD8ax0oiZLRVISbe421+tRogqVGgJsaaS75IAgvmuMY38OVaIxoADCG2rR7MJJldhWfYe1rVujwdJnDR70kYdjdpnW7+G6Ub0ns+Np4AKUDAFw6tyG4pWEcN/Q9mJrUhu/LUAx9jNdq3R9LMrRinb/UFlZ8ZiXugGOyG5YOAMYYqsY+rOo1/vfvKviCDn2BGUzUWpZ6EKXRs8hfvuvCKHyIJ58rEuDuPWnifmPZXfJ8+65BeU/1yS9RPJtME072t74+8xnbFjVSOgAgc+O25MEF/Sb2yhQpWWkY41Zc8lu1qfTG8DmwgOUY26mSAQC5Mfas4Ic/9YeLbGC1saUT0NKc7AxWdl0Y7Q/9EPI5P25jRCsAY6jNdw+zIeLuE0ej5Dl3XfPyCSsBGKB1levfJxkMK1JL/GO5FNue9K9kAMAAqkZKBwDbjNhGVDzPvOt8yjJ6iZseuQxqpcT1DhuBJb4/qcz0/eFYEtFyTKKlkgHAJgc6tc9plutZpruSmRHCtOtLOvQ+kMZEYyL86lDZfD51pDwLqImFkImxpK8kMBkjGgCMoTb/PfwdoARLE5rkvhNjV7zOUPgdy9W5zfeuUPkYSgcAtVsLlc0YvLzETmTslh+TrqHgb2MNDUsMALf5fcnVjUFtrZQMAMZsLdS2YxXXs/TIaKtkxJ57AGMs9Rl8lLjMsI84dpVhFXDNjBFqjlt8b6yPuAYAa3nSf2sH9jEY5BGAJT7jktf8LdYKNgklZa/tGiKZ1kjJAAC7ijGTkpp2DF3LMxxizUBxjKEi+SaGyh4bajmlQR4qf02ff3roYWQ+LxkA7JT/f6aP1W+RVALf3FqfZ3wlz1ldm1mJDytfNNxddllKBlZYhI8VDQDGklv2PjKblbiFxR9TjLdqk6uQjTCWswuva62sSwYA8Nu2YHyH19TQMzjXiIYOuaMysTr6iHK55TsFbR7q06Y/R4/USskAAPuDfVLIT0yu85oH+ZkRo9mSzGG0YcyMaC0Pjll9CccxPtGpjxoAJBLrPDJjQymVfA/SNdjX1EhpFLpU/lqODFxqpGQA8IOaAhe89gUFz7x2mZmgNENB3g6a0KeSycpavjupHUsNAFaZ/GfCs626db/GPqB2OeiKVTX8LTFGeoh9xzFWnpVNWexy/Lz7+pY+w6d3rGgAMJbc5u5jjx57lvS8S441s0M8SErKXNs1SwwACHW8BsHAcYj39ypd6ogiOVTmFAPI2oHqUFs28flSA4Da7ak1fOdmbcORm6RAZDQrfYi1KSdLFdfPKv9IZoUwsbCSQBbwxQJ2rJRyrF1WHtse3ZcnwBZbjcEt8fRLRQOAf/xOfaUU2sLX4R1SYhBK1MRS+cDA7zHfrzF2Bal+DQD+8T3a5wcAfCmw1q9JMHSq9E0qOBJHoDT16nkKylvjJaV2Dsef0HgNACbA2/CthP8tNQ7EFqc0mY22AP7xw72WAQBfrQcOKGwG/08u/A6etCC0+x0Ly+q6jMlW6YRvLddpBaDrac70fmkoW74QtQE43lT4hXvKTH3ZZDHkTij5Ixljxer7oQGAp7H+89JEWHx3SmchNyj8ri2ZvnUT5EtsANY0AChJ10vAmZJIkHhb9f2ekIJ5auIatiT66uCzvRCevcQIsPRvbxPf+63X8Y6CLwZfjtdVtrQk8hTl/sLMDltZ9rYvf1Qhs6lhQTUA2PaTrqufpWGMZod+aPn8mYVFY39TUh62PbssuzYAgHVJCHYShg3J0PbRHLZSxA8Y+h5tK8zyEJ+azzUAqKHV7lEPfTH4/OuV5bL0Xep2yDLnrgi+4IzsS5ideWKnNACYCHALt9+68LvBnm+JlGSG47u4q1tpicEuDgAOKHjWQwO9khj9tVEVE1N/LEkct6mEUr5dc59rAFBJlFCjJYqaCFW1wheqRFHy0KbGS69t29jrS6x16fPU5X/apwHA2Ke0vfuwBSj5zpdGwjxeYXlzZh/cBr1dHAAcqcANlBXOf+kBirtg3/eF78kU479U9XMG6qENhJDfddEAYMQTJMVm35cwfVYbua/GxqA2veWIbk6+hZSa3ypkxUxwqmgAMJXg5u/nx7okUAwGgyXCtsJQeFj+Pu9ZUtiKr9nFAQA4S2L3E80xJ0Q1JLZB+n3NHe+eu3HEe/cYqIe6+Z5tO9LiiK4d4hYNAA6Bo+xFafIgVgtqhC9TqcJkpIw71ZrlXgV/ROkPqZZVrt8aAOSorP+9EoMrvGRKhWBSOeXg36u10Smte1PX7eoA4CIFz6YrgM8lBu4lMBDeWnNIaUhp4lrssmgAMOLplbq0lVi0xupLYmenH7IXxZv///bO7WW/bA7g339AciihDDURBoVEDiVlmJEUIjnkLDfSGNwIjYacYlAOjXCDnA/JhTNFQ0iGe+UwSXLBDReeT+9e/fbseZ69v2vv9Tzv3u/7WfW2n2c/+917rc/67rW/e63vYUXfMbLKvNnRlrnJQIbNVQEYEtnGd8I/F5k+tMUtK1s+njgfb2/MUG21bFUBYIZmagb1X7sxAduhYZnKiEcq6VaF8NWHZLG//8ZWFzyn86gAzACPgPaFYN/n7JTl8PIoDVkFg+uuMTwwa3i/SDCi/gTcWOqyUxiqABQS29ky0O+7f4b7aqLavTB5Tpbctlq2qgDA+52J/hnaaLCcOhU34pmNOzMTsXJJ6PLG1Z11OhWASmzZ9L1LDETwuxwOgIe+k/BiTgKiymZXHZ6N+kebbqo68/jBKgDjfNb466OSsk6cjGxBocwY6m55GWDLCgCzg2QqPDSmsf+Lg86eUupYOmV2oWUh5spYHctvW14GUAGolJhspLG5+cypDoZRGTeUIoBMjz68sh3HOjxjPFPqzU1bayg5Vm8VgDE66/zt7clB9oOV1c/koUdJQAHZYtmyAgDvH030O2/7/SWaqYRpx0hZe91EHcs41iLuwHnJ4GYUgHdExMPOi1Lvuj9LCsXSqfkHRERmqaEI4Z9XoARggVv50hxuAAAMWUlEQVTqk9nWJk3qdcPejyoAe7Hs3fn+iLhq7y+n28ly11RQlyJHtbLy2qQsfq+R29jpqJ1daesKQCZi47UdVOTknyP9+b9doKglIcQP9R3X/evIdYtsMpvxxEMnWfn+zSgAaFkY7uD+1nqqJ9tHL0sIA0KBQDwwe9KR416dvF4RRIypWgTBGKnS3p9Y8yeAR6lHZvvpvWdatlMFIM+PNzBmjl50jg/ANydlBg8AEnLVlHtExL+T5399zYkbHTvm6565xNYVAPKfTLlrfqQD8aSJfjzmUs57J65dxjrstmjTKQszxUvjwWxKASiwfxkRCMUpC1Ps2QQRP2xYsc8kBbCw+e9OQSKk7lLByDbhmogg+2G5fmb7x4g4Rix2FYBsr915ChZ5fXT+X5sc+YQKL5G5U6wsG2TkkdjxyM6pCg/vTyy82NYVAJo/FWwHbwHKlNHgs7vjjrG5X0RgZ5WRo2+eMC7AfXe2X9jFEEhrSdmkAlA648e7hw+Wn8eeEWCw+kdSCKhby+QJxP3PWtQXLmx/HRE16TVrheieu4hdN0cEvrf96059Jn7BsZZyVADyvThcg2XW6judzLSIpDZWk2ckIsL15WiuHNcM3ryN4qN+zMKSy9e6+2WuUlPqdxEUAPq138/7PhPZ8esjxxFDgqn6Y5Yao+YvTUQyXFpPnnXMDJeX0UutABSBIdc01uQ1KXgzHXGfLkUlb9XlWlNbZidaD6AMZFO+s4fq9d2IIMFGKyWJVJzvTrjk7KsPU7lPyYCfeYwKQB7cUAHo9xdZ5IiU96D86VJHYtdCJLiMhX6pD0rJkpINRsX1UGbf1PBeKfW+d3fP9JckVADOxklyppS+3rdFWcQFdN9v7GvpRVT6a7il//4+Uodh3W6LCMbJ1uX6iOD50r+eCsAACMLC1B+RnOb4l2OV/tyIIMjO1BpVvyP4jKLw+Na93p0Pm4JslMBhvfjO/xJwB2WgxvIeS1yWWzDwmzMTUerCw7/WkKsWZVYBYOoMq+JT/vEms6YypgCUPmP7+132yffs+p6BmHX12nL3zs7gKxVTqeX6xIh4SO0FB8ez1k4byjkzW1x4uU+WKvKkwSbH/b5xRAXgrKOw3h/rE34/pDCyv4Wt1UBk9n596UQ9h20gCNq7IuJee8+W34ldAW/8h6LPqgBMdAwaJkl2MCh5axc458W7ByJWqCSqectuPfp93dQcbz5YlA47M/u9VRzqQ+LBGxmzHdn6HDqONx2MVlizwteVAZ43PtbaUBI+1TFjrZ710UPnye5nAHzaoUY13J9VALL1bnncQxu2s8WpsgpAnwHLBNwjyM2Hdmv4GPHh7YIh4ct305Lkc+B+QgHHMIt779Dg3T/voc+vaNHQzjtm30P40HXLflLCcl+QpTIzzcyyGIoS99AfJu4bFYCzzuUBPiYjY2/ezG6eshCiuMhGdsusD7NeBDZiJmGqEA7+ETvvA7xYvpEwZFUBmNEp2c6rOQ4r+KVvDFPCwe8sB9Qa3dW0o/WxPASWpvnNcOEYFYAsqTsbAbbu8xbnw76kZXnexINmqs4M5GSsRPnhQYARH0ZsrPniGpzJZ9C/hgrAld79/swxnJnaUxaiVh56E+/37dhnXuCwXWP28ZOdHH0+Ir7dzVT1l4nGzlN+UwGYKTwFYIstD/9TZoXCMDCTVatF25acAw22RZKf7E2uApAltW4FABuTY5RXLVQCltwLw/9VAbjSw7XT67D82wk9na7U9GxZ+XcreOYUeVIBOMfOYCr9hr50nPgzcQlqvBOK0Bx7S/AMpoVPXVQA8sTnLAEcW25YN2Up4ZiFpb8Wy1pLWagAXOllXIKn4vwPebNseV6FLKxL7KGGbVny/dIoAB89xwf9vg76zQmntscEndwETEPuq+Op97HOyvonhl/nUVQA8tS/vBKZKTL6k53h7YPz1V90JG69RM4s1z719qcNXGEvghtgvxNvregPbFGu7v/zOXzGOLo2+FlLOcNA9o0NZp43EweA9XWM92oteltC51xY0/MWccop/4x8432AdXvr9mbOx3QcFq8ZI5dMW+YeowKQJ4dRG1E1MxnPMjIw9xgMTVmfP4X9TJ8OS1OkDR4zQJvbpkP/h4cSY1iLtl40BeDJFWMXNgNrKbjmzXXRPiQnY/vxNEPxIF1xi7IZBaDfWIQFq/4WFvFjsMtvDBLEDGegOlWEvX57az4/biccaNM1eQRKO2u2TNnxFkkUrrUwUQGokZSzY4kP8fTOICkT97xGRg4dyyCGMR2DZ6v4FPUtP/sPXPXIPHcsRYC31R9ExAuSngTZdlw0BQClaMzfvy9LZAZcU8Gt+g0R8acKJabfnsznOzpvrdaxOTapAPQ7H/cqjHsImUv0u2zYxinoTBHygMMHk4BAWytYrHKjfLaxooTSRcS0pbHMj8GTcM2n9O2vudba4gDs48/DGBckYuOTzRJjp1br5cgNsTVeEhG4y62t4I6GmzBjCA/tqfFh7HeiXeJ6jJtxqze1IS9ic0zJ34eH/7Ty78jGVJuQoX6WwDU1iTGRFyLuHfKyjMnI1G8opNx/9CEu1Bk31DksWFqfYs6S2WYKU/OsDz2nC16DqwVr5LzB/6rzTcY1DT94vhMHHTeMWzotDj/e886SdgzYaI7MYOCnDRN8aHEn/G3HpCb+QWsXrWO013O2IcDAQ4RNZOdt3fQjQX2YhuVhyb3EH1P53E/sZwAkTgAPQALq4Lq6pULAI2YniCLIbBpv8LSNGAilvQzOP+9mMjiGNNgwglWLKf4t8bKudyXAc+iRnT//B3afv9qNt8hNkSHkCblCvlBsOA7/f0Ik1ya/umsN3COBCgJo3zVvPgyOFglIQAISkIAELgABIhlOTU31f7/xArTZJkhAAhKQgAQk0E1D9R/yU5/P0x/XDpOABCQgAQlIoBEB1i+n8nQPlQISnpy3NXej5nsaCUhAAhKQwOUlgFtfbUwB8pzf7fIis+USkIAEJCCBi0GA8JwkORm+7Y99v/2E0dwuBmVbIQEJSEACElghAXJRE6J17KE//I0ARK/TFWqFvWmVJCABCUhAAhUEUALmJI7hfx5bcR0PlYAEJCABCUhgZQRYDiBg0vBtP/OdgEPPmhG9C2PEUyWHWRluqyMBCUhAAhJYDwHiXRNNMfPQ33cMoTEJOUkkwmt3YZav6cKkEnWNjIY87J8aEa/sos0Ro/q29TTfmkhAAhKQgAQuLwFiXZNbYN8D/hj7VAAur6zZcglIQAISWCEBMl8dK3taX5FQAVhh51slCUhAAhK43ARIfPKfI88GqABcbhmz9RKQgAQksFICWPmT0ar/1t7yswrASjveaklAAhKQgARwE/zYkZYEVACULwlIQAISkMDKCTwmIr5VmVJ4arZABWDlnW71JCABCUhAAoUA7n2fa2QfoAJQqLqVgAQkIAEJbIQAwYOeHxFfiIg7ZtgJ/CUiTDW8kc62mhKQgAQkIIFDBO4fEddHxA0RcVNE3LILBHRrRJBK+OYuQNBrdsF/rtulI77q0EncLwEJSEACEpCABCQgAQlIQAISkIAEJCABCUhAAhKQgAQkIAEJSEACEpCABCQgAQlIQAISkIAEJCABCUhAAhKQgAQkIAEJSEACEpCABCQgAQlIQAISkIAEJCABCUhAAhKQgAQkIAEJSEACEpCABCQgAQlIQAISkIAEJCABCUhAAhKQgAQkIAEJSEACEpCABCQgAQlIQAISkIAEJCABCUhAAhKQgAQkIAEJSEACEpCABCQgAQlIQAISkIAEJCABCUhAAhKQgAQkIAEJSEACEpCABCQgAQlIQAISkIAEJCABCUhAAhKQgAQkIAEJSEACEpCABCQgAQlIQAISkIAEJCABCUhAAhKQgAQkIAEJSEACEpCABCQgAQlIQAISkIAEJCABCUhAAhKQgAQkIAEJSEACEpCABCQgAQlIQAISkIAEJCABCUhAAhKQgAQkIAEJSEACEpCABCQgAQlIQAISkIAEJCABCUhAAhKQgAQkIAEJSEACEpCABCQgAQlIQAISkIAEJCABCUhAAhKQgAQkIAEJSEACEpCABCQgAQlIQAISkIAEJCABCUhAAhKQgAQkIAEJSEACEpCABCQgAQlIQAISkIAEJCABCUhAAhKQgAQkIAEJSEACEpCABCQgAQlIQAISkIAEJCABCUhAAhKQgAQkIAEJSEACEpCABCQgAQksJfB/CaFd2TuNh4kAAAAASUVORK5CYII=;" vertex="1" parent="1">
          <mxGeometry x="215" y="80" width="40" height="40" as="geometry" />
        </mxCell>
      </root>
    </mxGraphModel>
  </diagram>
</mxfile>
